<?xml version="1.0" encoding="UTF-8"?>
<svg id="Layer_1" data-name="Layer 1" xmlns="http://www.w3.org/2000/svg" viewBox="0 0 88 88">
  <defs>
    <style>
      .cls-1 {
        fill: none;
        stroke: #656565;
        stroke-linecap: round;
        stroke-linejoin: round;
        stroke-width: 1.5px;
      }
    </style>
  </defs>
  <path class="cls-1" d="M65.641,49.22c-.744-10.273,1.063-26.289-13.281-32.514-5.445-2.363-11.764-2.363-17.21,0-14.345,6.226-12.537,22.242-13.281,32.514-.868,11.986-9.901,21.191-9.901,21.191h63.574s-9.032-9.206-9.901-21.191Z"/>
  <path class="cls-1" d="M21.521,13.148s-11.117,11.069-9.553,23.425"/>
  <path class="cls-1" d="M66.479,13.148s11.117,11.069,9.553,23.425"/>
  <path class="cls-1" d="M52.903,70.411c0,5.004-4.057,9.061-9.061,9.061s-9.061-4.057-9.061-9.061"/>
  <path class="cls-1" d="M40.338,14.932v-2.989c0-1.879,1.537-3.416,3.416-3.416h0c1.879,0,3.416,1.537,3.416,3.416v2.989"/>
</svg>