<?xml version="1.0" encoding="UTF-8"?>
<svg id="Layer_1" data-name="Layer 1" xmlns="http://www.w3.org/2000/svg" viewBox="0 0 88 88">
  <defs>
    <style>
      .cls-1 {
        fill: #900;
      }
    </style>
  </defs>
  <path class="cls-1" d="M23.669,21.043c1.026-.061,1.974.236,2.919.587,2.391.888,4.56,2.264,6.661,3.683.981-.412,1.942-.88,2.948-1.232,6.042-2.109,12.779-1.567,18.418,1.42.368.195.716.462,1.093.619,2.429-1.612,5.046-3.025,7.922-3.663,1.81-.402,4.809-.644,5.032,1.918.362,4.169-1.852,8.318-4.119,11.643,1.014,2.162,1.704,4.681,1.918,7.068,1.638,18.19-18.375,30.052-33.899,20.922-9.459-5.563-13.692-17.305-9.445-27.595.511-1.237,1.182-2.333,1.79-3.513,0-.152-.631-1.055-.756-1.277-.61-1.085-1.146-2.287-1.586-3.454-.76-2.017-2.441-6.916,1.101-7.127ZM24.098,21.847c-2.366.245-1.789,3.048-1.368,4.66s1.276,3.575,2.101,5.029c.094.166.333.665.535.645.183-.018.584-.6.566-.777-.012-.124-.688-1.104-.814-1.334-.758-1.386-2.29-5.085-2.068-6.589.116-.785.63-.496,1.148-.264.533.238,1.17.641,1.675.952,1.519.935,2.942,2.021,4.384,3.067.078.014,1.117-.694,1.267-.803.661-.482.698-.416.062-.954-1.719-1.455-5.187-3.869-7.489-3.631ZM64.575,22.652c-2.78.22-8.079,2.879-9.881,5.022-3.746,4.456,5.293,13.14,9.515,7.959,2.036-2.499,4.22-7.465,3.802-10.712-.261-2.03-1.581-2.416-3.435-2.269ZM42.38,23.616c-13.697.719-23.08,14.004-19.196,27.204,3.486,11.847,16.023,18.148,27.773,14.447,9.282-2.924,15.561-12.031,14.755-21.805-.171-2.07-.657-4.289-1.475-6.192-.294.243-.5.573-.835.773-.36.215-.892.327-1.307.355-3.881.265-8.248-2.884-9.224-6.649-.358-1.382-.491-3.838,1.051-4.579.224-.108,1.337-.269.989-.624-.186-.19-1.305-.701-1.618-.848-3.483-1.632-7.055-2.285-10.914-2.082Z"/>
  <path class="cls-1" d="M42.23,25.156l-.392.223c-6.695,2.487-13.623,8.782-12.796,16.581.019.175.096.896.213.966.194.116.973-.25,1.234-.322,3.742-1.04,6.75.721,9.223,3.376,2.282,2.45,3.674,6.266,7.529,6.517,4.692.305,9.039-3.916,11.136-7.739,1.001-1.825,1.617-3.726,2.036-5.764.127-.081,1.381.067,1.578.149.223.093.333.491.412.713,1.102,3.096.977,7.733,0,10.857-4.368,13.965-23.184,17.752-32.745,6.768-3.412-3.92-5.861-10.122-4.995-15.342,1.251-7.543,6.457-13.479,13.613-15.979,1.263-.441,2.631-.837,3.955-1.003Z"/>
  <path class="cls-1" d="M66.981,24.517c.188-.05.261.292.301.435.322,1.139-.151,2.619-.483,3.728-.64,2.137-2.343,6.671-4.481,7.635-1.524.687-4.119-.491-5.266-1.563-2.18-2.039.012-3.402,1.748-4.473,1.718-1.059,3.557-1.928,5.286-2.97.765-.461,2.026-1.159,2.451-1.945.095-.176.267-.799.444-.846Z"/>
</svg>