<?xml version="1.0" encoding="UTF-8"?>
<svg id="Layer_1" data-name="Layer 1" xmlns="http://www.w3.org/2000/svg" viewBox="0 0 88 88">
  <defs>
    <style>
      .cls-1 {
        fill: none;
        stroke: #656565;
        stroke-linecap: round;
        stroke-linejoin: round;
        stroke-width: 1.5px;
      }
    </style>
  </defs>
  <polyline class="cls-1" points="68.744 66.884 73.408 75.849 68.474 75.668 65.796 79.79 61.915 72.299"/>
  <polyline class="cls-1" points="54.785 67.516 50.453 75.849 55.357 75.668 58.035 79.79 61.915 72.299 63.51 69.2"/>
  <path class="cls-1" d="M64.593,48.352h0c.692,1.143,1.986,1.745,3.309,1.594h0c2.527-.301,4.483,2.166,3.64,4.573h0c-.451,1.264-.12,2.647.812,3.58h0c1.805,1.805,1.113,4.874-1.294,5.686h0c-1.264.421-2.166,1.564-2.286,2.888h0c-.271,2.527-3.099,3.911-5.265,2.527h0c-1.113-.722-2.557-.722-3.7,0h0c-2.136,1.354-4.994,0-5.265-2.527h0c-.15-1.324-1.023-2.437-2.286-2.888h0c-2.407-.842-3.099-3.911-1.294-5.686h0c.933-.933,1.264-2.347.812-3.58h0c-.842-2.407,1.113-4.874,3.64-4.573h0c1.324.15,2.617-.481,3.309-1.594h0c1.354-2.166,4.483-2.166,5.836,0h.03Z"/>
  <path class="cls-1" d="M54.061,65.256H11.454c-1.836,0-3.338-1.502-3.338-3.338V18.447c0-1.836,1.502-3.338,3.338-3.338h65.093c1.836,0,3.338,1.502,3.338,3.338v43.471c0,1.836-1.502,3.338-3.338,3.338h-7.306"/>
  <line class="cls-1" x1="32.203" y1="24.001" x2="60.022" y2="24.001"/>
  <line class="cls-1" x1="14.325" y1="57.065" x2="30.651" y2="57.065"/>
  <line class="cls-1" x1="14.84" y1="31.689" x2="37.498" y2="31.689"/>
  <line class="cls-1" x1="50.291" y1="38.57" x2="72.949" y2="38.57"/>
  <line class="cls-1" x1="45.316" y1="31.689" x2="73.135" y2="31.689"/>
  <line class="cls-1" x1="14.325" y1="38.57" x2="42.144" y2="38.57"/>
  <circle class="cls-1" cx="61.66" cy="58.594" r="6.351"/>
</svg>