<?xml version="1.0" encoding="UTF-8"?>
<svg id="Layer_1" data-name="Layer 1" xmlns="http://www.w3.org/2000/svg" viewBox="0 0 88 88">
  <defs>
    <style>
      .cls-1 {
        fill: none;
        stroke: #656565;
        stroke-linecap: round;
        stroke-linejoin: round;
        stroke-width: 1.5px;
      }
    </style>
  </defs>
  <path class="cls-1" d="M71.272,41.591c-.287,0-.569.019-.85.043.017-.285.043-.568.043-.858,0-7.692-6.236-13.928-13.928-13.928-2.829,0-5.456.849-7.654,2.297-2.859-4.999-8.232-8.376-14.403-8.376-9.164,0-16.593,7.429-16.593,16.593,0,1.507.219,2.96.595,4.349-.477-.071-.962-.12-1.459-.12-5.439,0-9.848,4.409-9.848,9.848s4.409,9.848,9.848,9.848h54.248c5.439,0,9.848-4.409,9.848-9.848s-4.409-9.848-9.848-9.848Z"/>
</svg>