<?xml version="1.0" encoding="UTF-8"?>
<svg id="Layer_1" data-name="Layer 1" xmlns="http://www.w3.org/2000/svg" viewBox="0 0 88 88">
  <defs>
    <style>
      .cls-1 {
        fill: none;
        stroke: #656565;
        stroke-linecap: round;
        stroke-linejoin: round;
        stroke-width: 1.5px;
      }
    </style>
  </defs>
  <line class="cls-1" x1="66.452" y1="46.402" x2="76.782" y2="40.44"/>
  <polyline class="cls-1" points="11.218 41.757 42.857 60.027 49.755 56.052"/>
  <polyline class="cls-1" points="18.115 18.025 49.755 36.284 66.452 26.655"/>
  <line class="cls-1" x1="18.115" y1="18.025" x2="34.812" y2="8.385"/>
  <line class="cls-1" x1="34.886" y1="8.385" x2="66.526" y2="26.655"/>
  <line class="cls-1" x1="66.664" y1="34.594" x2="76.782" y2="40.44"/>
  <line class="cls-1" x1="18.115" y1="37.783" x2="49.755" y2="56.052"/>
  <line class="cls-1" x1="11.218" y1="41.789" x2="18.115" y2="37.804"/>
  <polyline class="cls-1" points="11.218 61.345 42.857 79.615 76.782 60.027"/>
  <line class="cls-1" x1="11.218" y1="41.757" x2="11.218" y2="61.345"/>
  <line class="cls-1" x1="42.857" y1="60.027" x2="42.857" y2="79.615"/>
  <line class="cls-1" x1="76.782" y1="60.027" x2="76.782" y2="40.44"/>
  <line class="cls-1" x1="18.115" y1="37.783" x2="18.115" y2="18.025"/>
  <line class="cls-1" x1="49.755" y1="56.052" x2="49.755" y2="36.284"/>
  <line class="cls-1" x1="66.452" y1="26.655" x2="66.452" y2="46.402"/>
  <g>
    <line class="cls-1" x1="24.099" y1="25.401" x2="24.099" y2="36.273"/>
    <line class="cls-1" x1="27.914" y1="27.654" x2="27.914" y2="38.527"/>
    <line class="cls-1" x1="31.719" y1="29.907" x2="31.719" y2="40.769"/>
    <line class="cls-1" x1="35.535" y1="32.16" x2="35.535" y2="43.022"/>
    <line class="cls-1" x1="39.34" y1="34.403" x2="39.34" y2="45.275"/>
    <line class="cls-1" x1="43.155" y1="36.656" x2="43.155" y2="47.529"/>
  </g>
  <g>
    <line class="cls-1" x1="17.509" y1="49.633" x2="17.509" y2="60.505"/>
    <line class="cls-1" x1="21.314" y1="51.886" x2="21.314" y2="62.759"/>
    <line class="cls-1" x1="25.13" y1="54.139" x2="25.13" y2="65.001"/>
    <line class="cls-1" x1="28.945" y1="56.392" x2="28.945" y2="67.254"/>
    <line class="cls-1" x1="32.75" y1="58.635" x2="32.75" y2="69.507"/>
    <line class="cls-1" x1="36.566" y1="60.888" x2="36.566" y2="71.761"/>
  </g>
  <line class="cls-1" x1="59.82" y1="50.228" x2="59.82" y2="69.816"/>
  <g>
    <line class="cls-1" x1="46.386" y1="62.376" x2="56.291" y2="56.658"/>
    <line class="cls-1" x1="46.386" y1="73.408" x2="56.291" y2="67.69"/>
    <line class="cls-1" x1="56.291" y1="56.658" x2="56.291" y2="67.69"/>
    <line class="cls-1" x1="46.386" y1="62.376" x2="46.386" y2="73.408"/>
    <line class="cls-1" x1="51.339" y1="59.517" x2="51.339" y2="70.549"/>
  </g>
  <g>
    <line class="cls-1" x1="63.348" y1="52.396" x2="73.254" y2="46.678"/>
    <line class="cls-1" x1="63.348" y1="63.428" x2="73.254" y2="57.71"/>
    <line class="cls-1" x1="73.254" y1="46.678" x2="73.254" y2="57.71"/>
    <line class="cls-1" x1="63.348" y1="52.396" x2="63.348" y2="63.428"/>
    <line class="cls-1" x1="68.301" y1="49.537" x2="68.301" y2="60.569"/>
  </g>
  <g>
    <line class="cls-1" x1="53.305" y1="39.005" x2="63.221" y2="33.276"/>
    <line class="cls-1" x1="53.305" y1="50.026" x2="63.221" y2="44.308"/>
    <line class="cls-1" x1="63.221" y1="33.276" x2="63.221" y2="44.308"/>
    <line class="cls-1" x1="53.305" y1="39.005" x2="53.305" y2="50.026"/>
    <line class="cls-1" x1="58.268" y1="36.135" x2="58.268" y2="47.167"/>
  </g>
  <line class="cls-1" x1="49.755" y1="56.052" x2="66.452" y2="46.402"/>
</svg>