<?xml version="1.0" encoding="UTF-8"?>
<svg id="Layer_1" data-name="Layer 1" xmlns="http://www.w3.org/2000/svg" viewBox="0 0 88 88">
  <defs>
    <style>
      .cls-1 {
        fill: #082233;
      }
    </style>
  </defs>
  <path class="cls-1" d="M69.43,29.919l-.994-.567-25.001-14.421-25.273,14.584v29.037l.349.196,24.924,14.323,24.181-13.898,1.442-.829v-16.176l-1.442.829-11.539,6.633v-12.042l13.33-7.658.022-.011h.002ZM44.211,31.534l10.447,6.043v12.053l-10.447-6.032v-12.065.002ZM42.693,17.026v12.848l-11.167,6.457-11.181-6.413,22.346-12.894.002.002ZM42.693,31.534v12.064l-10.445,6.032v-12.053l10.445-6.043ZM19.628,31.162l11.177,6.414v12.882l-11.179,6.457v-25.753h.002ZM20.381,58.148l11.145-6.446,11.19,6.436.022,12.85-22.358-12.839h.002ZM43.447,56.884h-.011l-10.479-6.011,10.445-6.032.044.022.044-.022,10.445,6.032-1.203.687-9.276,5.334h-.011v-.011ZM56.811,50.873l10.817-6.229v12.85l-1.114.644-22.356,12.839.021-12.85,12.631-7.265v.011ZM55.38,36.333l-11.167-6.457v-12.851l22.346,12.893-11.177,6.414-.002.002Z"/>
  <path class="cls-1" d="M43.448,73.506l-25.646-14.737v-29.483l25.646-14.803,26.749,15.434-13.713,7.887v11.169l12.981-7.46v17.06l-26.016,14.944v-.011ZM18.567,58.323l.153.087,24.739,14.213,25.252-14.508v-15.292l-12.981,7.462v-12.926l12.948-7.439-25.22-14.552-24.892,14.366v28.59ZM43.785,71.653l.022-13.734,24.213-13.93v13.732l-24.235,13.919v.012ZM44.571,58.356l-.022,11.966,22.706-13.046v-11.976l-22.684,13.046v.011ZM43.118,71.653l-23.501-13.504,11.91-6.884,11.571,6.654.021,13.734h-.002ZM21.146,58.148l21.209,12.185-.021-11.966-10.807-6.206-10.381,6v-.011h0ZM19.244,57.581v-27.075l11.943,6.861v13.318l-11.943,6.907v-.011ZM20.01,31.826v24.433l10.413-6.021v-12.435l-10.413-5.977ZM43.459,57.329h-.022l-11.243-6.457,11.211-6.468,11.299,6.468-11.243,6.457h-.002ZM43.438,56.445h.011l9.725-5.575-9.736-5.607-9.714,5.607,9.714,5.585v-.011ZM31.867,50.292v-12.937l11.211-6.48v12.948l-11.211,6.468v.002ZM32.62,37.791v11.169l9.681-5.585v-11.177l-9.681,5.596v-.003ZM55.043,50.292l-11.211-6.468v-12.946l11.211,6.48v12.937-.003ZM44.597,43.376l9.681,5.585v-11.169l-9.681-5.596v11.181h0ZM55.383,36.777l-11.55-6.676v-13.731l23.492,13.558-11.943,6.861v-.011l.002-.002ZM44.597,29.654l10.785,6.24,10.413-5.978-21.201-12.226v11.966l.003-.002ZM31.53,36.777l-11.945-6.859,23.492-13.558v13.732l-11.55,6.676v.011l.003-.002ZM21.113,29.917l10.413,5.978,10.785-6.24v-11.966l-21.198,12.227Z"/>
</svg>