<?xml version="1.0" encoding="UTF-8"?>
<svg id="Layer_1" data-name="Layer 1" xmlns="http://www.w3.org/2000/svg" viewBox="0 0 88 88">
  <defs>
    <style>
      .cls-1 {
        fill: #656565;
      }

      .cls-2 {
        fill: none;
        stroke: #656565;
        stroke-linecap: round;
        stroke-linejoin: round;
        stroke-width: 1.5px;
      }
    </style>
  </defs>
  <g>
    <path class="cls-2" d="M59.645,12.763H8.185v13.491h51.46v-13.491Z"/>
    <path class="cls-1" d="M10.235,24.196v-1.166l5.12-6.947h-5.12v-1.278h6.87v1.166l-5.12,6.947h5.12v1.278h-6.87Z"/>
    <path class="cls-1" d="M18.006,24.196l3.568-9.391h1.475l3.568,9.391h-1.587l-.832-2.196h-3.877l-.832,2.196h-1.492.009ZM20.802,20.714h2.907l-1.449-4.048-1.458,4.048Z"/>
    <path class="cls-1" d="M27.886,24.196v-9.383h3.594c1.081,0,1.87.232,2.376.695.506.455.763,1.064.763,1.81s-.129.901-.386,1.244-.6.583-1.021.738c.557.129.995.377,1.312.763.334.377.497.866.497,1.475s-.111.978-.334,1.381c-.223.395-.583.703-1.072.935-.48.223-1.115.334-1.887.334h-3.842v.009ZM29.361,22.926h2.256c.746,0,1.244-.129,1.518-.377s.412-.609.412-1.089-.137-.841-.412-1.098c-.274-.266-.789-.403-1.527-.403h-2.239v2.968h-.009ZM29.361,18.784h1.998c.678,0,1.141-.129,1.398-.377s.386-.583.386-.995-.129-.746-.386-.978c-.249-.232-.712-.352-1.398-.352h-1.998v2.693h0v.009Z"/>
    <path class="cls-1" d="M36.823,24.196v-9.383h3.594c1.081,0,1.87.232,2.376.695.506.455.763,1.064.763,1.81s-.129.901-.386,1.244-.6.583-1.021.738c.557.129.995.377,1.312.763.334.377.497.866.497,1.475s-.111.978-.334,1.381c-.223.395-.583.703-1.072.935-.48.223-1.115.334-1.887.334h-3.842v.009ZM38.298,22.926h2.256c.746,0,1.244-.129,1.518-.377s.412-.609.412-1.089-.137-.841-.412-1.098c-.274-.266-.789-.403-1.527-.403h-2.239v2.968h-.009ZM38.298,18.784h1.998c.678,0,1.141-.129,1.398-.377s.386-.583.386-.995-.129-.746-.386-.978c-.249-.232-.712-.352-1.398-.352h-1.998v2.693h0v.009Z"/>
    <path class="cls-1" d="M46.068,24.196v-9.383h1.475v9.391h-1.475v-.009Z"/>
    <path class="cls-1" d="M49.302,24.196l3.259-4.854-3.122-4.537h1.647l2.376,3.422,2.401-3.422h1.595l-3.113,4.503,3.242,4.88h-1.672l-2.479-3.799-2.504,3.799h-1.63v.009Z"/>
  </g>
  <path class="cls-2" d="M49.583,42.71c9.669,0,18.157-2.499,22.964-6.26"/>
  <path class="cls-2" d="M49.583,57.476c9.669,0,18.157-2.499,22.964-6.26"/>
  <path class="cls-2" d="M49.579,71.909c9.669,0,18.157-2.499,22.964-6.26"/>
  <path class="cls-2" d="M22.446,51.216c0,7.406,12.15,13.409,27.138,13.409,14.988,0,27.138-6.004,27.138-13.409"/>
  <path class="cls-2" d="M22.446,37.47v28.178c0,7.406,12.15,13.409,27.138,13.409,14.988,0,27.138-6.004,27.138-13.409v-28.178"/>
  <path class="cls-2" d="M23.615,26.254c3.39,5.5,13.73,9.51,25.97,9.51,14.99,0,27.14-6.01,27.14-13.41s-12.15-13.41-27.14-13.41c-7.37,0-14.06,1.45-18.95,3.82"/>
  <path class="cls-2" d="M76.725,22.354v14.43c0,7.41-12.15,13.41-27.14,13.41s-27.14-6-27.14-13.41v-10.53"/>
  <circle class="cls-1" cx="40.775" cy="42.148" r="1.945"/>
  <circle class="cls-1" cx="40.775" cy="56.782" r="1.945"/>
  <circle class="cls-1" cx="40.775" cy="71.552" r="1.945"/>
</svg>