<?xml version="1.0" encoding="UTF-8"?>
<svg id="Layer_1" data-name="Layer 1" xmlns="http://www.w3.org/2000/svg" viewBox="0 0 88 88">
  <defs>
    <style>
      .cls-1 {
        fill: none;
        stroke: #656565;
        stroke-linecap: round;
        stroke-linejoin: round;
        stroke-width: 1.5px;
      }
    </style>
  </defs>
  <path class="cls-1" d="M33.233,5.505l1.677,4.717c1.711.709,2.575,1.067,4.286,1.775l4.521-2.149q2.079,2.079,4.164,4.164l-2.149,4.521c.709,1.711,1.067,2.575,1.775,4.286l4.717,1.677v5.889l-4.717,1.677c-.709,1.711-1.067,2.575-1.775,4.286l2.149,4.521q-2.079,2.079-4.164,4.164l-4.521-2.149c-1.711.709-2.575,1.067-4.286,1.775l-1.677,4.717h-5.889l-1.677-4.717c-1.711-.709-2.575-1.067-4.286-1.775l-4.521,2.149q-2.079-2.079-4.164-4.164l2.149-4.521c-.709-1.711-1.067-2.575-1.775-4.286l-4.717-1.677v-5.889l4.717-1.677c.709-1.711,1.067-2.575,1.775-4.286l-2.149-4.521q2.079-2.079,4.164-4.164l4.521,2.149c1.711-.709,2.575-1.067,4.286-1.775l1.677-4.717h5.889Z"/>
  <circle id="circle30" class="cls-1" cx="30.289" cy="27.441" r="10.561" transform="translate(-10.22 32.865) rotate(-49.802)"/>
  <path class="cls-1" d="M66.605,31.926l1.152,3.239c1.175.487,1.768.732,2.943,1.219l3.105-1.476q1.428,1.428,2.859,2.859l-1.476,3.105,1.219,2.943,3.239,1.152v4.044l-3.239,1.152c-.487,1.175-.732,1.768-1.219,2.943l1.476,3.105q-1.428,1.428-2.859,2.859l-3.105-1.476c-1.175.487-1.768.732-2.943,1.219l-1.152,3.239h-4.044l-1.152-3.239c-1.175-.487-1.768-.732-2.943-1.219l-3.105,1.476q-1.428-1.428-2.859-2.859l1.476-3.105-1.219-2.943-3.239-1.152v-4.044l3.239-1.152,1.219-2.943-1.476-3.105q1.428-1.428,2.859-2.859l3.105,1.476c1.175-.487,1.768-.732,2.943-1.219l1.152-3.239h4.044Z"/>
  <circle id="circle30-2" data-name="circle30" class="cls-1" cx="64.584" cy="46.989" r="7.252" transform="translate(-12.992 65.99) rotate(-49.802)"/>
  <path class="cls-1" d="M39.183,52.369l1.152,3.239c1.175.487,1.768.732,2.943,1.219l3.105-1.476q1.428,1.428,2.859,2.859l-1.476,3.105,1.219,2.943,3.239,1.152v4.044l-3.239,1.152-1.219,2.943,1.476,3.105q-1.428,1.428-2.859,2.859l-3.105-1.476c-1.175.487-1.768.732-2.943,1.219l-1.152,3.239h-4.044l-1.152-3.239c-1.175-.487-1.768-.732-2.943-1.219l-3.105,1.476-2.859-2.859,1.476-3.105-1.219-2.943-3.239-1.152v-4.044l3.239-1.152c.487-1.175.732-1.768,1.219-2.943l-1.476-3.105q1.428-1.428,2.859-2.859l3.105,1.476c1.175-.487,1.768-.732,2.943-1.219l1.152-3.239h4.044Z"/>
  <circle id="circle30-3" data-name="circle30" class="cls-1" cx="37.162" cy="67.432" r="7.252" transform="translate(-38.329 52.294) rotate(-49.802)"/>
</svg>