<?xml version="1.0" encoding="UTF-8"?>
<svg id="Layer_1" data-name="Layer 1" xmlns="http://www.w3.org/2000/svg" viewBox="0 0 88 88">
  <defs>
    <style>
      .cls-1 {
        stroke-dasharray: 7.124 7.124;
      }

      .cls-1, .cls-2, .cls-3 {
        fill: none;
        stroke: #656565;
        stroke-linecap: round;
        stroke-linejoin: round;
        stroke-width: 1.5px;
      }

      .cls-2 {
        stroke-dasharray: 9.545 9.545;
      }
    </style>
  </defs>
  <circle class="cls-3" cx="44.867" cy="45.977" r="31.219"/>
  <path class="cls-3" d="M61.681,19.669v2.329c0,.57-.462,1.032-1.032,1.032h-4.076c-2.49,0-4.508,2.018-4.508,4.508v1.369c0,.588-.477,1.065-1.065,1.065h-.502c-.429,0-.777.348-.777.777v3.095h-.723c-1.39-.001-2.517,1.125-2.517,2.515v.065c0,1.445,1.162,2.606,2.594,2.606,1.066,0,2.056,0,2.056,0,.43,0,.778-.348.778-.778h0c0-.576.467-1.043,1.043-1.043h1.685c.338,0,.662.134.901.373l2.703,2.703c.238.238.372.561.372.897v1.779c0,.67-.543,1.213-1.213,1.213h-.915c-.479,0-.939-.19-1.278-.529l-.725-.725c-.531-.531-1.252-.83-2.003-.83h-2.867c-3.433,0-6.217,2.783-6.217,6.217v.449c0,3.433,2.783,6.217,6.217,6.217h2.014c.584,0,1.144.232,1.556.645l1.029,1.029c.617.617.935,1.467.896,2.338-.088,1.924-.036,5.439.013,7.721.026,1.211,1.014,2.177,2.225,2.177h0c.497,0,.974-.198,1.326-.549l4.634-4.634c.701-.701,1.094-1.651,1.094-2.642v-2.976c0-.739.294-1.448.816-1.971l3.441-3.441c.331-.331.516-.779.516-1.247h0c0-.788-.639-1.426-1.426-1.426h-.236c-.775,0-1.403-.628-1.403-1.403h0c0-.775.628-1.403,1.403-1.403h.671c.802,0,1.452-.65,1.452-1.452h0c0-.865.701-1.565,1.565-1.565h4.553"/>
  <path class="cls-3" d="M23.848,22.896h5.838c.317,0,.574.257.574.574h0c0,1.359,1.101,2.46,2.46,2.46h2.748c.955,0,1.73.774,1.73,1.73v.977c0,3.174-2.573,5.747-5.747,5.747h-1.565c-1.288,0-2.333,1.044-2.333,2.333v4.883c0,.697-.565,1.263-1.263,1.263h0c-.712,0-1.283-.588-1.262-1.3.022-.738.026-1.501-.053-1.422l-2.836,2.836c-.472.472-.736,1.111-.736,1.778v1.443c0,2.04,1.653,3.693,3.693,3.693h3.042c1.468,0,2.876.583,3.914,1.621l1.953,1.953c.492.492,1.159.768,1.854.768h0c1.071,0,1.939.868,1.939,1.939v2.601c0,2.314-.919,4.533-2.555,6.169h0c-.915.915-1.429,2.156-1.429,3.45v6.406l-5.532-5.532c-.678-.678-1.059-1.597-1.059-2.556v-2.361c0-1.164-.944-2.108-2.108-2.108h-.148c-1.493,0-2.704-1.211-2.704-2.704v-1.694c0-1.773-.704-3.474-1.958-4.728l-5.932-5.379"/>
  <path class="cls-3" d="M41.156,23.885h-3.281c-1.406,0-2.669-.86-3.184-2.168l-.119-.303c-.504-1.279.439-2.663,1.813-2.663h5.478c1.01,0,1.743.96,1.477,1.934l-.527,1.934c-.204.747-.883,1.266-1.657,1.266Z"/>
  <g>
    <path class="cls-3" d="M61.205,80.331c1.814-.864,3.549-1.868,5.19-2.997"/>
    <path class="cls-1" d="M71.857,72.772c2.503-2.521,4.655-5.391,6.378-8.531"/>
    <path class="cls-3" d="M79.803,61.031c.787-1.823,1.435-3.719,1.931-5.677"/>
  </g>
  <g>
    <path class="cls-3" d="M44.867,7.945c-2.035,0-4.032.16-5.98.467"/>
    <path class="cls-2" d="M29.743,11.071c-10.293,4.466-18.224,13.351-21.398,24.262"/>
    <path class="cls-3" d="M7.302,39.996c-.308,1.948-.468,3.946-.468,5.98"/>
  </g>
</svg>