<?xml version="1.0" encoding="UTF-8"?>
<svg id="Layer_1" data-name="Layer 1" xmlns="http://www.w3.org/2000/svg" viewBox="0 0 88 88">
  <defs>
    <style>
      .cls-1 {
        fill: none;
        stroke: #656565;
        stroke-linecap: round;
        stroke-linejoin: round;
        stroke-width: 1.5px;
      }
    </style>
  </defs>
  <g>
    <g>
      <path class="cls-1" d="M18.418,70.829v-12.833c0-2.231,1.825-4.056,4.056-4.056h0c2.231,0,4.056,1.825,4.056,4.056v12.833"/>
      <path class="cls-1" d="M32.769,70.829v-12.833c0-2.231,1.825-4.056,4.056-4.056h0c2.231,0,4.056,1.825,4.056,4.056v12.833"/>
      <path class="cls-1" d="M47.12,70.829v-12.833c0-2.231,1.825-4.056,4.056-4.056h0c2.231,0,4.056,1.825,4.056,4.056v12.833"/>
      <path class="cls-1" d="M61.471,70.829v-12.833c0-2.231,1.825-4.056,4.056-4.056h0c2.231,0,4.056,1.825,4.056,4.056v12.833"/>
    </g>
    <polygon class="cls-1" points="56.591 18.691 44 18.691 44 12.053 56.591 12.053 54.372 15.372 56.591 18.691"/>
    <line class="cls-1" x1="44" y1="18.691" x2="44" y2="23.411"/>
  </g>
  <g>
    <rect class="cls-1" x="12.222" y="40.952" width="63.555" height="6.828" rx="1.765" ry="1.765"/>
    <rect class="cls-1" x="12.222" y="70.829" width="63.555" height="5.118" rx="1.765" ry="1.765"/>
    <line class="cls-1" x1="14.111" y1="70.829" x2="14.111" y2="47.78"/>
    <line class="cls-1" x1="74.222" y1="70.829" x2="74.222" y2="47.78"/>
    <path class="cls-1" d="M17.899,39.857h0c0-1.604,1.312-2.917,2.917-2.917h5.618"/>
    <path class="cls-1" d="M70.319,39.857h0c0-1.604-1.312-2.917-2.917-2.917h-5.618"/>
    <path class="cls-1" d="M26.702,40.952c0-9.688,7.853-17.541,17.541-17.541s17.541,7.853,17.541,17.541"/>
  </g>
</svg>