<?xml version="1.0" encoding="UTF-8"?>
<svg id="Layer_1" data-name="Layer 1" xmlns="http://www.w3.org/2000/svg" viewBox="0 0 88 88">
  <defs>
    <style>
      .cls-1 {
        fill: #191919;
      }
    </style>
  </defs>
  <path class="cls-1" d="M11.228,14.214l32.649,63.572L76.772,14.214H11.228ZM38.825,39.47h-5.174v-5.175h5.175s0,5.175,0,5.175ZM38.825,31.709h-5.174v-5.174h5.175s0,5.175,0,5.174ZM46.587,47.232h-5.175v-5.175h5.175v5.175ZM46.587,39.47h-5.175v-5.175h5.175v5.175ZM46.587,31.709h-5.175v-5.174h5.175s0,5.175,0,5.174ZM54.349,39.47h-5.175v-5.175h5.175v5.175ZM49.174,31.709v-5.174h5.175v5.175s-5.175,0-5.175,0Z"/>
</svg>