<?xml version="1.0" encoding="UTF-8"?>
<svg id="Layer_1" data-name="Layer 1" xmlns="http://www.w3.org/2000/svg" viewBox="0 0 88 88">
  <defs>
    <style>
      .cls-1 {
        fill: #d40000;
      }

      .cls-2 {
        fill: #106db6;
      }

      .cls-3 {
        fill: none;
        stroke: #656565;
        stroke-linecap: round;
        stroke-linejoin: round;
        stroke-width: 1.5px;
      }
    </style>
  </defs>
  <g>
    <path class="cls-2" d="M38.125,46.045s-1.57.91,1.12,1.22c3.26.37,4.92.32,8.51-.36,0,0,.94.59,2.26,1.1-8.04,3.45-18.21-.2-11.89-1.97"/>
    <path class="cls-2" d="M37.145,41.545s-1.76,1.3.93,1.58c3.48.36,6.23.39,10.98-.53,0,0,.66.67,1.69,1.03-9.73,2.84-20.56.22-13.6-2.09"/>
    <path class="cls-2" d="M56.075,49.375s1.16.96-1.28,1.7c-4.64,1.41-19.33,1.83-23.41.06-1.47-.64,1.28-1.52,2.15-1.71.9-.2,1.42-.16,1.42-.16-1.63-1.15-10.54,2.26-4.53,3.23,16.4,2.66,29.9-1.2,25.64-3.12"/>
    <path class="cls-2" d="M38.885,36.885s-7.47,1.77-2.64,2.42c2.04.27,6.1.21,9.88-.11,3.09-.26,6.19-.82,6.19-.82,0,0-1.09.47-1.88,1.01-7.58,1.99-22.24,1.07-18.02-.97,3.57-1.72,6.47-1.53,6.47-1.53"/>
    <path class="cls-2" d="M52.285,44.375c7.71-4.01,4.15-7.86,1.66-7.34-.61.13-.88.24-.88.24,0,0,.23-.35.66-.51,4.92-1.73,8.71,5.1-1.59,7.81,0,0,.12-.11.15-.2"/>
    <path class="cls-2" d="M39.645,55.235c7.4.47,18.76-.26,19.03-3.76,0,0-.52,1.33-6.12,2.38-6.32,1.19-14.11,1.05-18.73.29,0,0,.95.78,5.81,1.09"/>
  </g>
  <g>
    <path class="cls-1" d="M58.335,61.515h-.23v-.13h.61v.13h-.22v.63h-.16v-.63ZM59.545,61.545h0l-.22.6h-.1l-.22-.6h0v.6h-.15v-.76h.22l.21.54.21-.54h.22v.76h-.15v-.6h-.02Z"/>
    <path class="cls-1" d="M45.435,33.915c1.98,2.28-.52,4.34-.52,4.34,0,0,5.03-2.6,2.72-5.85-2.16-3.03-3.81-4.54,5.15-9.74,0,0-14.07,3.51-7.35,11.26"/>
    <path class="cls-1" d="M47.635,14.265s4.27,4.27-4.05,10.84c-6.67,5.27-1.52,8.27,0,11.7-3.89-3.51-6.75-6.61-4.83-9.49,2.81-4.23,10.61-6.27,8.89-13.06"/>
    <path class="cls-1" d="M38.425,68.615c-.7.61-1.44.95-2.1.95-.94,0-1.45-.57-1.45-1.47,0-.98.55-1.7,2.74-1.7h.81v2.23M40.355,70.785v-6.73c0-1.72-.98-2.85-3.34-2.85-1.38,0-2.59.34-3.57.78l.28,1.19c.77-.28,1.77-.55,2.76-.55,1.36,0,1.95.55,1.95,1.68v.85h-.68c-3.31,0-4.8,1.28-4.8,3.21,0,1.66.98,2.61,2.83,2.61,1.19,0,2.08-.49,2.91-1.21l.15,1.02s1.51,0,1.51,0Z"/>
    <path class="cls-1" d="M46.785,70.785h-2.4l-2.89-9.41h2.1l1.79,5.78.4,1.74c.91-2.51,1.55-5.06,1.87-7.52h2.04c-.55,3.1-1.53,6.5-2.91,9.41"/>
    <path class="cls-1" d="M55.995,68.615c-.7.61-1.44.95-2.1.95-.94,0-1.45-.57-1.45-1.47,0-.98.55-1.7,2.74-1.7h.81v2.23M57.925,70.785v-6.73c0-1.72-.98-2.85-3.34-2.85-1.38,0-2.59.34-3.57.78l.28,1.19c.77-.28,1.78-.55,2.76-.55,1.36,0,1.95.55,1.95,1.68v.85h-.68c-3.31,0-4.8,1.28-4.8,3.21,0,1.66.98,2.61,2.83,2.61,1.19,0,2.08-.49,2.91-1.21l.15,1.02s1.51,0,1.51,0Z"/>
    <path class="cls-1" d="M30.835,72.385c-.55.8-1.44,1.44-2.41,1.79l-.95-1.12c.74-.38,1.37-.99,1.67-1.56.25-.51.36-1.16.36-2.73v-10.74h2.05v10.6c0,2.09-.17,2.94-.72,3.76"/>
  </g>
  <rect class="cls-3" x="17.025" y="8.455" width="53.95" height="71.09" rx="2" ry="2"/>
</svg>