<?xml version="1.0" encoding="UTF-8"?>
<svg id="Layer_1" data-name="Layer 1" xmlns="http://www.w3.org/2000/svg" viewBox="0 0 88 88">
  <defs>
    <style>
      .cls-1 {
        fill: none;
        stroke: #656565;
        stroke-linecap: round;
        stroke-linejoin: round;
        stroke-width: 1.5px;
      }
    </style>
  </defs>
  <path class="cls-1" d="M59.237,51.745c.127-.154.217-.261.217-.261l-.045-.021c1.74-2.792,2.763-6.077,2.763-9.609,0-10.057-8.153-18.21-18.21-18.21s-18.209,8.153-18.209,18.21c0,3.538,1.025,6.829,2.771,9.623l-.016.007s.036.042.072.085c.573.905,1.223,1.751,1.941,2.539,2.436,3.425,6.144,9.586,5.561,14.69h15.799c-.594-5.201,3.268-11.5,5.698-14.883.604-.681,1.161-1.403,1.659-2.169Z"/>
  <path class="cls-1" d="M58.077,39.56c-1.652-4.704-5.181-8.525-9.688-10.563"/>
  <line class="cls-1" x1="35.974" y1="73.14" x2="51.898" y2="73.14"/>
  <line class="cls-1" x1="35.974" y1="76.947" x2="51.898" y2="76.947"/>
  <line class="cls-1" x1="38.494" y1="80.754" x2="49.378" y2="80.754"/>
  <line class="cls-1" x1="44" y1="17.957" x2="44" y2="7.246"/>
  <line class="cls-1" x1="19.469" y1="42.488" x2="8.758" y2="42.488"/>
  <line class="cls-1" x1="79.242" y1="42.488" x2="68.531" y2="42.488"/>
  <line class="cls-1" x1="26.654" y1="25.142" x2="19.08" y2="17.568"/>
  <line class="cls-1" x1="68.92" y1="67.408" x2="61.346" y2="59.834"/>
  <line class="cls-1" x1="26.654" y1="59.834" x2="19.08" y2="67.408"/>
  <line class="cls-1" x1="68.92" y1="17.568" x2="61.346" y2="25.142"/>
</svg>