<?xml version="1.0" encoding="UTF-8"?>
<svg id="Layer_1" data-name="Layer 1" xmlns="http://www.w3.org/2000/svg" viewBox="0 0 88 88">
  <defs>
    <style>
      .cls-1 {
        fill: #161616;
        fill-rule: evenodd;
      }
    </style>
  </defs>
  <path class="cls-1" d="M35.945,64.601c2.103-.217,2.38-2.443,1.39-3.415-.816-.8-5.319-4.143-6.494-5.457-.545-.61-1.285-.909-1.598-1.595-.72-1.577-1.224-3.828-.311-5.443.165-.292.272-.161.145.447-.717,3.449,1.528,6.266,2.022,4.821.342-.998.025-2.783.207-4.202.323-2.509,2.607-7.327,3.611-7.602-1.548-2.866,1.814-5.11,1.774-7.625-.027-1.636,1.436,2.011,2.907,2.784,1.643.864,3.449-1.627,6.012-2.891.725-.358,1.656-.769,1.593-1.074-.301-1.47-3.366,1.814-6.104,1.925-1.25.05-1.713-.246-2.196-.712-1.459-1.41.149-.233,2.318-.626.964-.175,1.288-.335,2.312-.749,1.023-.414,2.193-1.026,3.351-1.34.806-.219.738-.825.425-1.007-.181-.105-.448-.094-.66.272-.497.859-2.833,1.355-3.561,1.578-.936.286-1.972.554-3.348.498-2.09-.085-1.603-1.042-3.097-1.9-.439-.252-.32-.911.263-1.494.305-.306,1.141-.478,1.556-1.173.058-.097.593-.657,1.012-.946.145-.1.157-2.652-1.152-2.705-1.113-.044-1.429.818-1.382,1.677.046.859.501,1.567.805,1.564.583-.006.037.639-.283.743-.485.158-1.152-1.913-1.075-2.906.08-1.036.619-2.869,1.93-2.834,1.18.032,2.036,1.511,1.992,4.063-.007.433,1.913-.207,2.555.471.458.484-1.571-4.522,2.947-4.866,1.191.228,2.333.624,2.809,3.36-.175.284.297,2.194-.438,2.421-.897.277-1.45-.04-.932-.894.355-.858.008-3.039-1.807-2.908-1.814.131-1.574,3.351-1.077,3.415.498.063,1.751.953,2.625,1.123,2.871.559.762,2.204,1.135,4.196.421,2.251,1.903,1.656,3.234,7.614.278.363,1.382.707,2.456,5.284.967,4.118-.401,7.113,1.923,6.867.524-.055,1.289-.202,1.622-1.369.87-3.05-.436-6.684-1.755-9.136-.767-1.43-1.491-2.404-1.873-2.738,1.512.893,3.443,3.746,3.889,5.864.585,2.782,1.004,3.96.118,6.902.512.255,1.783.796,1.783,1.403-1.325-1.089-5.383-1.283-5.487,1.322-.692.014-1.215.071-1.661.599-1.631,1.935-.116,5.822-.282,7.907-.145,1.835-.653,3.652-.94,5.495-.972-.037-.876-.749-.565-1.745.275-.88.717-1.982.747-3.039.026-.956-.079-1.554-.32-1.702-.242-.149-.62.152-1.141.993-1.115,1.794-3.527,2.583-5.781,2.865-2.254.283-4.348.059-5.457-1.184-.379-.425-1.008.116-1.083.229-.1.151.367.445.719,1.091.515.944,1.004,2.376-.215,3.03.015-3.323-1.037-3.517-2.112-5.547ZM35.139,64.513c.807,1.271,3.653,6.623-1.335,7.318-1.668.233-4.354-.97-6.957-1.607-2.338-.572-4.712-.91-6.041-1.284-.8-.225-1.135-.512-1.204-.847-.185-.889.972-2.134,1.03-3.186.058-1.052-.384-1.598-.746-2.456-.362-.86-.457-1.504-.167-1.874.226-.287.685-.406,1.431-.334.946.094,2.089-.1,2.703-.475,1.034-.63,1.52-1.923,1.055-3.48,0,1.524-.499,2.101-1.752,2.798-1.18.657-3.003.125-3.841.852-1.008.875.36,3.132.248,4.79-.086,1.274-1.415,2.709-.822,3.986.596,1.285,3.377,1.425,6.276,2.031,4.12.863,6.523,2.363,8.427,2.433,2.777.103,3.203-2.748,7.565-2.787,1.271-.067,2.516-.107,3.758-.122,1.409-.018,2.815-.006,4.26.029,2.902.07,1.904,1.585,3.787,2.552,1.589.816,4.445.494,5.128-.158.925-.882,3.408-3.004,5.309-3.962,2.372-1.196,7.939-3.252,3.897-5.76-.942-.584-3.169-1.202-3.356-5.478-.844.749-.746,4.734,1.607,5.524,2.629.883,4.272,2.362-.616,4.033-3.235,1.107-3.785,1.447-6.347,3.58-2.592,2.157-6.438,1.3-5.766-3.242.35-2.367.551-4.322-.038-6.38-.288-1.004-.431-2.294-.234-3.198.383-1.758,1.334-2.287,2.267-.599.585,1.059.79,2.297,2.886,2.398,3.293.158,3.946-3.182,4.998-3.334.702-.101,1.404-2.088.869-5.302-.573-3.441-2.597-8.873-5.193-11.628-2.158-2.29-3.518-4.297-4.373-7.162-.718-2.408-1.12-4.75-.972-6.991.192-2.902-1.418-6.941-3.98-8.842-1.604-1.19-4.119-1.827-6.397-1.802-1.277.014-2.478.2-3.402.702-3.801,2.063-4.331,5.01-4.275,8.374.054,3.16.161,6.765.52,10.195-.425,1.575-2.638,4.561-4.054,6.378-1.905,1.881-2.867,5.518-4.1,8.696-.658,1.694-1.765,2.458-1.858,4.636-.026.61-.005,2.185.577,1.734,2.227-1.723,5.016,2.622,9.228,9.251h0ZM46.703,18.97c-.12.359-.615.658-.301.909.314.252.494-.351,1.126-.577.163-.058.922.024,1.062-.336.061-.158-.391-.337-.66-.595-.27-.256-.534-.486-.788-.47-.653.042-.332.75-.439,1.069ZM50.575,32.071c.235-.247.356.426.989.825.501.317.989.082,1.116.723.09.46-.197.959-.582.893-.671-.113-2.219-1.712-1.523-2.442ZM40.125,28.028c-1.042-.077-1.113.675-.768.663.352-.012.135-.596.768-.663ZM38.338,26.104c.123-.027.298.182.244.477-.076.408-.043.664.24.665.046,0,.097-.009.115-.115.136-.813-.287-1.411-.46-1.455-.398-.101-.35.473-.139.428h0ZM45.922,25.76c.265.079.52.537.574,1.03.006.047.346-.071.349-.179.021-.796-.658-1.17-.836-1.154-.409.038-.294.241-.088.303h0ZM42.034,28.125c.948-.439,1.279.241.952.351-.334.111-.336-.51-.952-.351ZM30.59,44.27c-.448-.054.13-.39.376-.814.269-.466.217-1.048.5-.962.283.086.126.411-.068.946-.165.454-.642.85-.808.83h0Z"/>
</svg>