<?xml version="1.0" encoding="UTF-8"?>
<svg id="Layer_1" data-name="Layer 1" xmlns="http://www.w3.org/2000/svg" viewBox="0 0 88 88">
  <defs>
    <style>
      .cls-1 {
        fill: #003545;
      }
    </style>
  </defs>
  <path class="cls-1" d="M22.51,57.54l2.253,8.789h-1.701l-1.501-6.331-2.829,6.331h-1.437l-2.813-6.294-1.545,6.294h-1.665l2.233-8.789h1.473l3.041,6.805,3.029-6.805h1.461Z"/>
  <path class="cls-1" d="M31.187,60.936v-1.023h1.643v6.415h-1.643v-1.033c-.434.743-1.326,1.169-2.413,1.169-2.271,0-3.537-1.615-3.537-3.471,0-1.79,1.2-3.229,3.295-3.229,1.194.014,2.185.418,2.655,1.173ZM26.985,63.079c0,1.181.736,2.192,2.161,2.192,1.375,0,2.123-.987,2.123-2.155s-.772-2.167-2.201-2.167c-1.369,0-2.081.997-2.081,2.131h-.002Z"/>
  <path class="cls-1" d="M36.533,66.328h-1.641v-6.415h1.641v1.437c.188-.46.505-.854.913-1.133s.888-.432,1.38-.439c.349-.005.697.052,1.026.169l-.35,1.211c-.284-.076-.575-.116-.868-.121-1.184,0-2.101.9-2.101,2.22v3.071Z"/>
  <path class="cls-1" d="M40.673,58.22c-.003-.116.017-.232.061-.34.043-.108.109-.205.191-.287s.181-.144.289-.185c.108-.041.223-.058.339-.052.118-.004.235.016.344.06.11.043.209.108.293.192.084.083.15.183.194.293.044.11.066.227.064.346.002.117-.02.233-.064.341-.045.108-.111.205-.196.285-.084.08-.184.142-.293.181-.109.039-.225.054-.341.045-.116.005-.232-.014-.34-.056-.108-.042-.207-.107-.29-.189-.083-.082-.147-.181-.19-.29-.043-.109-.063-.226-.06-.343ZM40.745,59.913h1.643v4.688c0,.291.06.499.3.499.106-.003.211-.015.314-.036l.254,1.211c-.346.138-.715.206-1.086.202-.688,0-1.425-.202-1.425-1.778v-4.785Z"/>
  <path class="cls-1" d="M49.724,60.936v-1.023h1.649v6.415h-1.643v-1.033c-.434.743-1.326,1.169-2.413,1.169-2.269,0-3.537-1.615-3.537-3.471,0-1.79,1.2-3.229,3.295-3.229,1.188.014,2.179.418,2.649,1.173ZM45.522,63.079c0,1.181.736,2.192,2.161,2.192,1.376,0,2.125-.987,2.125-2.155s-.774-2.167-2.201-2.167c-1.371,0-2.083.997-2.083,2.131h-.002Z"/>
  <path class="cls-1" d="M53.888,57.54h3.936c3.307,0,4.96,1.839,4.936,4.393.024,2.656-1.801,4.395-4.646,4.395h-4.226v-8.789ZM54.974,58.319v7.243h3.001c2.631,0,3.633-1.79,3.633-3.653,0-2.105-1.254-3.59-3.633-3.59h-3.001Z"/>
  <path class="cls-1" d="M69.47,66.328h-5.002v-8.789h4.512c1.725,0,3.367.327,3.343,2.276,0,1.374-.846,1.754-1.739,1.899,1.267.109,2.029.924,2.029,2.24.008,1.972-1.707,2.373-3.143,2.373ZM69.096,61.374c1.727,0,2.113-.67,2.113-1.522,0-1.279-.772-1.57-2.113-1.57h-3.585v3.092h3.585ZM69.144,62.116h-3.633v3.469h3.789c1.062,0,2.185-.353,2.185-1.703,0-1.558-1.29-1.766-2.341-1.766Z"/>
  <path class="cls-1" d="M72.997,15.653c-.159-.132-.362-.201-.568-.192-.566,0-1.299.387-1.693.595l-.156.081c-.661.323-1.381.506-2.115.537-.752.024-1.4.069-2.245.157-5.002.519-7.233,4.385-9.382,8.125-1.17,2.034-2.379,4.147-4.035,5.761-.343.335-.707.647-1.09.934-1.715,1.286-3.868,2.204-5.542,2.854-1.613.622-3.373,1.181-5.074,1.721-1.559.494-3.029.963-4.382,1.469-.61.228-1.128.404-1.587.557-1.233.404-2.121.712-3.419,1.614-.506.349-1.014.726-1.358,1.009-1.031.83-1.943,1.799-2.711,2.88-.66.997-1.424,1.921-2.277,2.757-.274.27-.76.404-1.488.404-.852,0-1.887-.178-2.981-.365-1.128-.202-2.295-.393-3.295-.393-.812,0-1.435.133-1.899.404,0,0-.782.46-1.112,1.055l.324.147c.503.275.968.614,1.385,1.009.435.405.919.752,1.441,1.033.167.062.318.159.444.285-.136.202-.336.462-.546.741-1.154,1.524-1.829,2.486-1.443,3.011.185.097.392.144.6.137,2.517,0,3.869-.66,5.58-1.495.496-.242,1-.49,1.601-.747,1-.438,2.077-1.136,3.219-1.875,1.495-.983,3.057-1.992,4.574-2.478,1.246-.383,2.545-.567,3.847-.545,1.601,0,3.285.216,4.91.426,1.21.157,2.465.319,3.695.394.478.028.92.042,1.351.042.575.002,1.15-.029,1.723-.091l.138-.049c.862-.535,1.266-1.683,1.659-2.793.252-.714.464-1.356.8-1.764.02-.02.041-.038.064-.055.016-.009.034-.012.052-.009.018.003.034.012.046.025v.032c-.2,4.341-1.933,7.097-3.685,9.547l-1.171,1.265s1.639,0,2.571-.363c3.401-1.025,5.968-3.285,7.837-6.89.461-.925.873-1.874,1.234-2.843.032-.081.326-.23.298.188-.01.123-.018.26-.028.404,0,.085,0,.172-.016.258-.048.605-.19,1.885-.19,1.885l1.05-.567c2.533-1.614,4.486-4.872,5.966-9.939.616-2.111,1.068-4.208,1.466-6.054.476-2.22.886-4.123,1.357-4.861.738-1.158,1.865-1.941,2.955-2.702.148-.103.298-.202.444-.311,1.37-.971,2.733-2.091,3.033-4.179v-.046c.218-1.558.034-1.955-.176-2.137Z"/>
</svg>