<?xml version="1.0" encoding="UTF-8"?>
<svg id="Layer_1" data-name="Layer 1" xmlns="http://www.w3.org/2000/svg" viewBox="0 0 88 88">
  <defs>
    <style>
      .cls-1 {
        fill: #090;
      }
    </style>
  </defs>
  <path class="cls-1" d="M20.183,51.952c-.43,0-.854-.167-1.171-.485l-9.795-9.796v8.625c0,.914-.741,1.655-1.655,1.655s-1.655-.741-1.655-1.655v-12.622c0-.67.404-1.273,1.022-1.529.618-.257,1.331-.115,1.804.359l9.795,9.796v-8.625c0-.914.741-1.655,1.655-1.655s1.655.741,1.655,1.655v12.622c0,.914-.741,1.655-1.655,1.655M27.847,36.037l-.455.849-3.517,6.393-.455.807.455.806,3.518,6.186.475.848h9.207l.455-.931,2.628-5.297,1.179-2.4h-2.669l-6.724.021c-.874-.012-1.679.781-1.679,1.655s.805,1.668,1.679,1.655l4.055-.021-.993,2.007h-5.214l-2.587-4.552,2.607-4.717h5.546l1.293,2.653h3.331l-2.1-5.032-.456-.932h-9.58M44.615,36.016c-.867.011-1.646.809-1.635,1.676v4.313h3.31v-4.313c.01-.881-.796-1.687-1.676-1.676M49.921,51.984c-.914,0-1.654-.741-1.655-1.655v-12.622c0-.914.741-1.655,1.655-1.655s1.655.741,1.655,1.655v8.625l9.795-9.796c.473-.474,1.185-.615,1.803-.359.618.256,1.022.86,1.021,1.529v12.622c0,.914-.741,1.655-1.655,1.655s-1.655-.741-1.655-1.655v-8.625l-9.795,9.796c-.31.311-.732.485-1.171.485M76.457,44.006l5.149-5.13c.648-.645.649-1.693.004-2.341-.645-.648-1.692-.649-2.34-.004l-5.157,5.139-5.157-5.139c-.648-.645-1.696-.643-2.34.004-.646.648-.644,1.696.003,2.341l5.149,5.13-5.134,5.116c-.648.646-.649,1.693-.004,2.34.31.313.732.488,1.172.487.423,0,.845-.161,1.168-.483l5.142-5.124,5.142,5.124c.31.31.73.484,1.168.483.425,0,.849-.162,1.172-.487.645-.647.644-1.695-.004-2.34l-5.134-5.116M44.615,51.937c-.867-.01-1.646-.809-1.635-1.676v-6.929h3.31v6.929c.01.88-.796,1.686-1.676,1.676"/>
</svg>