<?xml version="1.0" encoding="UTF-8"?>
<svg id="Layer_1" data-name="Layer 1" xmlns="http://www.w3.org/2000/svg" viewBox="0 0 88 88">
  <path d="M50.683,25.985c1.413-1.698,2.413-4.053,2.413-6.408s-.027-.658-.086-.925c-2.3.087-5.036,1.55-6.686,3.487-1.295,1.491-2.504,3.846-2.504,6.234s.059.718.086.833c.146.028.382.06.618.06,2.063,0,4.659-1.399,6.158-3.28ZM61.318,34.335c-.264.207-4.917,2.861-4.917,8.764s5.922,9.242,6.099,9.302c-.027.147-.941,3.308-3.122,6.528-1.945,2.834-3.977,5.663-7.067,5.663s-3.886-1.817-7.454-1.817-4.713,1.877-7.54,1.877-4.799-2.622-7.067-5.843c-2.627-3.782-4.749-9.656-4.749-15.232,0-8.943,5.745-13.686,11.399-13.686s5.508,1.997,7.395,1.997,4.595-2.116,8.013-2.116,5.949.12,9.012,4.564Z"/>
</svg>