<?xml version="1.0" encoding="UTF-8"?>
<svg id="Layer_1" data-name="Layer 1" xmlns="http://www.w3.org/2000/svg" viewBox="0 0 88 88">
  <defs>
    <style>
      .cls-1 {
        fill: none;
        stroke: #656565;
        stroke-linecap: round;
        stroke-linejoin: round;
        stroke-width: 1.5px;
      }
    </style>
  </defs>
  <g>
    <circle class="cls-1" cx="20.888" cy="47.341" r="4.102"/>
    <line class="cls-1" x1="42.86" y1="45.866" x2="70.164" y2="45.866"/>
    <path class="cls-1" d="M72.452,36.717c.041.219.068.443.068.674,0,2.005-1.625,3.631-3.631,3.631s-3.631-1.626-3.631-3.631c0-.231.027-.455.068-.674h-4.816c.041.219.068.443.068.674,0,2.005-1.626,3.631-3.631,3.631s-3.631-1.626-3.631-3.631c0-.231.027-.455.068-.674h-15.145c-3.114-3.879-7.888-6.368-13.25-6.368-9.385,0-16.993,7.608-16.993,16.992s7.608,16.992,16.993,16.992c7.967,0,14.632-5.492,16.469-12.891h31.174l7.37-7.37v-7.356h-7.551Z"/>
  </g>
  <g>
    <polyline class="cls-1" points="56.853 31.34 56.853 25.128 51.69 19.966 51.69 14.116"/>
    <circle class="cls-1" cx="51.69" cy="11.039" r="2.9"/>
    <circle class="cls-1" cx="62.712" cy="17.508" r="2.9"/>
    <polyline class="cls-1" points="68.714 31.34 68.714 25.128 73.876 19.966 73.876 14.116"/>
    <circle class="cls-1" cx="73.876" cy="11.039" r="2.9"/>
    <line class="cls-1" x1="62.712" y1="31.34" x2="62.712" y2="20.967"/>
  </g>
  <g>
    <polyline class="cls-1" points="56.853 56.66 56.853 62.872 51.69 68.034 51.69 73.884"/>
    <circle class="cls-1" cx="51.69" cy="76.961" r="2.9"/>
    <circle class="cls-1" cx="62.712" cy="70.492" r="2.9"/>
    <polyline class="cls-1" points="68.714 56.66 68.714 62.872 73.876 68.034 73.876 73.884"/>
    <circle class="cls-1" cx="73.876" cy="76.961" r="2.9"/>
    <line class="cls-1" x1="62.712" y1="56.66" x2="62.712" y2="67.033"/>
  </g>
</svg>