<?xml version="1.0" encoding="UTF-8"?>
<svg id="Layer_1" data-name="Layer 1" xmlns="http://www.w3.org/2000/svg" viewBox="0 0 88 88">
  <defs>
    <style>
      .cls-1 {
        fill: #231f20;
      }

      .cls-2 {
        fill: #367faf;
      }

      .cls-3 {
        fill: #fff;
      }

      .cls-4 {
        fill: #417ba2;
      }
    </style>
  </defs>
  <path class="cls-1" d="M8.164,53.302h-3.916v-3.939h4.129c1.511,0,2.267.675,2.267,2,0,1.293-.827,1.939-2.48,1.939M10.98,49.318c-.536-.48-1.287-.72-2.253-.72l-5.609.03v9.423h1.13l-.011-4.012h4.174c1.047,0,1.87-.24,2.471-.72s.902-1.148.902-2-.269-1.52-.805-2h0ZM18.293,56.073c-.108.308-.292.584-.536.801-.506.495-1.278.741-2.326.741-.938,0-1.651-.24-2.161-.72s-.754-1.123-.754-1.928c0-.42.066-.792.197-1.116.125-.315.32-.596.572-.822.519-.473,1.235-.71,2.146-.71,2.026,0,3.026.883,3.026,2.648,0,.42-.058.788-.173,1.106M18.488,52.595c-.689-.628-1.708-.942-3.059-.942-1.275,0-2.262.321-2.958.963-.628.581-.942,1.364-.942,2.35,0,.979.324,1.769.972,2.371.358.324.775.559,1.251.704s1.035.225,1.676.225c1.35,0,2.366-.311,3.076-.932.628-.567.942-1.353.942-2.36,0-1.013-.317-1.803-.953-2.371l-.006-.008ZM27.041,56.344c0,1.275-1.137,1.903-3.409,1.903-.695,0-1.28-.045-1.756-.132s-.861-.235-1.158-.438c-.227-.154-.414-.36-.546-.6-.135-.242-.223-.563-.263-.942l1.05-.01c0,.499.185.867.555,1.103.398.284,1.101.425,2.11.425,1.588,0,2.383-.398,2.383-1.194,0-.465-.266-.786-.799-.96-.108-.034-.75-.123-1.928-.268s-1.91-.275-2.201-.39c-.627-.25-.941-.698-.941-1.346-.024-.597.305-1.152.84-1.417.278-.128.623-.227,1.038-.299s.897-.107,1.444-.107c2.188,0,3.282.686,3.282,2.059h-1.005c0-.965-.769-1.448-2.307-1.448-.783,0-1.365.098-1.75.3s-.578.495-.578.9c0,.378.26.651.779.82.304.088,1.002.189,2.095.304.978.088,1.649.212,2.014.375.695.27,1.05.728,1.05,1.376v-.015ZM31.195,58.07l-.43.06-.269.02c-.689,0-1.185-.1-1.489-.3s-.45-.549-.45-1.05v-4.299h-1.253v-.632h1.245l.01-2.032h.964v2.032h1.679v.643l-1.679-.011v4.184c0,.311.075.527.248.645s.461.178.885.178c.06.008.128.005.203-.008s.185-.038.334-.077l.011.645h-.008ZM37.862,56.636c-.268.218-.573.386-.9.496-.338.115-.725.173-1.163.173-2.017,0-3.024-.825-3.024-2.498,0-.775.258-1.382.773-1.82s1.242-.657,2.18-.657c.944,0,1.66.221,2.15.662s.734,1.033.734,1.775c0,.809-.25,1.425-.749,1.871M39.575,51.865h-.964l-.011,1.063c-.425-.431-.728-.705-.911-.819-.54-.296-1.238-.445-2.095-.445-1.255,0-2.213.287-2.874.86-.627.525-.941,1.288-.941,2.286,0,.492.08.933.238,1.32s.39.717.694.986c.662.553,1.598.83,2.807.83,1.453,0,2.476-.398,3.091-1.2v1.101c0,.701-.221,1.245-.663,1.63s-1.169.578-2.181.578c-.951,0-1.63-.131-2.026-.393-.304-.201-.513-.551-.627-1.048h-.987c.108.694.401,1.197.881,1.507.554.357,1.489.536,2.804.536,2.518,0,3.777-.936,3.777-2.807v-5.989l-.014.007ZM44.79,52.492c-.267-.045-.538-.069-.809-.071-1.585,0-2.377.869-2.377,2.607v3.022h-.953l-.011-6.184.964.01v1.103h.05c.162-.435.418-.765.769-.989.384-.225.957-.326,1.72-.326h.647v.828h-.002ZM45.687,54.567c.122-.703.395-1.247.819-1.633.278-.223.59-.39.941-.503s.746-.167,1.184-.167c.857,0,1.556.235,2.099.705s.822,1.002.822,1.598h-5.857M51.646,52.66c-.353-.347-.783-.605-1.256-.751-.5-.163-1.083-.244-1.752-.244-1.249,0-2.218.29-2.907.87s-1.033,1.371-1.033,2.371.33,1.801.992,2.38c.715.648,1.724.972,3.027.972.519,0,1-.06,1.442-.176s.828-.285,1.159-.499c.581-.417.948-.93,1.103-1.543h-1.05c-.358,1.05-1.248,1.586-2.671,1.586-1.005,0-1.778-.258-2.326-.776-.465-.45-.698-1.017-.698-1.723h6.872c0-1.049-.3-1.872-.921-2.476l.018.008Z"/>
  <path class="cls-2" d="M62.753,55.524c0,1.836-1.481,2.753-4.442,2.753-1.774,0-3.07-.315-3.886-.949-.675-.52-1.002-1.313-1.002-2.378h1.2c0,1.714,1.23,2.571,3.695,2.571,1.181,0,2.035-.176,2.561-.525.446-.31.675-.795.675-1.456,0-.654-.304-1.113-.912-1.376-.345-.15-1.185-.32-2.521-.536-1.681-.257-2.771-.512-3.27-.768-.722-.377-1.083-1.018-1.083-1.922,0-.843.3-1.471.921-1.882.66-.452,1.795-.677,3.402-.677,2.904,0,4.354.964,4.354,2.892h-1.209c0-1.444-1.078-2.166-3.226-2.166-1.08,0-1.871.146-2.371.435-.473.311-.709.765-.709,1.367,0,.628.304,1.07.912,1.326.323.149,1.275.354,2.855.618,1.486.223,2.487.482,3.001.78.709.365,1.063.996,1.063,1.894l-.01-.002ZM72.437,56.462c-.449.359-.961.631-1.51.804-.561.179-1.189.268-1.885.268-1.425,0-2.566-.375-3.441-1.148s-1.313-1.783-1.313-3.057c0-1.328.434-2.361,1.302-3.102s2.026-1.112,3.451-1.112c1.453,0,2.594.387,3.425,1.163.439.377.763.825.973,1.324s.315,1.08.315,1.728c0,1.32-.44,2.365-1.317,3.133M73.072,57.087c.621-.438,1.08-.975,1.378-1.593s.446-1.35.446-2.159c0-1.463-.486-2.636-1.459-3.526-.52-.485-1.148-.846-1.876-1.082s-1.576-.354-2.521-.354c-1.836,0-3.277.445-4.324,1.335s-1.57,2.097-1.57,3.621c0,1.483.527,2.68,1.576,3.59s2.498,1.365,4.328,1.365c.715,0,1.339-.049,1.873-.145s.985-.245,1.356-.446l1.762,1.221.735-.675-1.705-1.157v.005ZM83.823,58.05h-8.146v-9.435l1.12-.02v8.666h7.037l-.011.788h0Z"/>
  <g>
    <path class="cls-1" d="M48.569,41.02c.148-1.23.104-1.41,1.02-1.211l.225.02c.705.032,1.626-.113,2.168-.365,1.165-.54,1.856-1.444.707-1.206-2.621.54-2.801-.347-2.801-.347,2.768-4.107,3.924-9.321,2.926-10.596-2.723-3.481-7.44-1.834-7.518-1.792l-.025.005c-.518-.107-1.098-.173-1.748-.182-1.185-.02-2.086.311-2.776.829,0,0-8.412-3.466-8.028,4.359.083,1.664,2.386,12.594,5.132,9.293,1.004-1.208,1.973-2.228,1.973-2.228.482.32,1.05.483,1.663.425l.047-.04c-.014.157-.008.315.019.47-.707.79-.5.93-1.913,1.221-1.431.295-.59.82-.041.957.665.167,2.206.402,3.245-1.054l-.041.167c.278.222.259,1.596.298,2.577s.105,1.898.305,2.438c.2.54.435,1.931,2.296,1.533,1.553-.333,2.741-.812,2.849-5.269"/>
    <path class="cls-1" d="M45.076,47.339c-1.229,0-2.079-.702-2.534-2.095l-.049-.147c-.238-.642-.319-1.559-.365-2.738l-.017-.545c-.003-.119-.007-.256-.012-.4-.799.35-1.734.412-2.735.163-.447-.112-.911-.338-1.199-.685-.797.662-1.554.564-1.97.426-2.971-.992-4.409-9.973-4.447-10.735-.121-2.465.547-4.229,1.986-5.244,2.243-1.584,5.618-.677,6.887-.248.84-.495,1.812-.739,2.92-.719.58.009,1.136.059,1.657.151,1.374-.448,5.726-1.205,8.385,2.193,1.394,1.783-.021,6.942-2.257,10.742.277-.008.656-.048,1.168-.153,1.274-.261,1.627.486,1.705.722.394,1.196-1.282,2.08-1.806,2.323-.777.361-1.882.489-2.622.454l-.192-.017c-.005.04-.01.079-.014.119l-.027.232-.013-.002c-.125,4.507-1.37,5.628-3.617,6.111-.294.062-.571.094-.831.094ZM43.413,38.983c.556.445.604,1.259.646,2.778l.016.522c.02.495.065,1.654.245,2.137.024.065.048.139.075.221.202.618.285.876,1.103.699,1.153-.247,1.985-.426,2.079-4.339l1.027.025-1.003-.121.026-.224c.085-.726.152-1.299.67-1.669.325-.232.689-.263,1.007-.236-.262-.268-.346-.543-.371-.668l-.081-.4.229-.338c2.756-4.088,3.505-8.743,2.967-9.451-2.164-2.766-5.933-1.636-6.349-1.501l-.067.037-.339.067-.217-.035c-.478-.099-1.005-.154-1.565-.162-.893-.008-1.589.193-2.176.634l-.442.332-.513-.21c-1.01-.413-3.97-1.243-5.524-.144-.856.606-1.246,1.802-1.16,3.554.109,2.199,1.98,8.747,3.121,8.983-.002-.004.106-.047.288-.266,1.013-1.218,1.976-2.234,2.016-2.276l.565-.594.682.454c.237.158.49.247.755.269l1.551-1.332-.165,2.345c-.007.074-.004.148.009.22l.079.463-.314.35s-.005.006-.008.01l.758.349.383-.478Z"/>
  </g>
  <path class="cls-4" d="M52.697,38.258c-2.621.54-2.801-.347-2.801-.347,2.768-4.107,3.924-9.321,2.926-10.597-2.723-3.481-7.44-1.834-7.518-1.792l-.026.005c-.518-.107-1.098-.173-1.748-.182-1.185-.02-2.086.311-2.776.829,0,0-8.412-3.466-8.028,4.359.083,1.666,2.386,12.594,5.132,9.293,1.004-1.208,1.973-2.228,1.973-2.228.482.32,1.058.483,1.663.425l.047-.04c-.015.15-.008.296.019.47-.707.79-.5.93-1.913,1.221-1.431.295-.59.82-.041.957.665.167,2.206.402,3.245-1.054l-.041.167c.278.222.473,1.444.439,2.551s-.054,1.868.165,2.462c.219.594.435,1.931,2.296,1.533,1.553-.333,2.359-1.196,2.471-2.635.08-1.023.26-.872.27-1.786l.144-.433c.167-1.388.026-1.834.983-1.626l.225.02c.705.032,1.627-.113,2.168-.365,1.165-.54,1.856-1.444.707-1.206h.02Z"/>
  <g>
    <g>
      <path class="cls-3" d="M45.205,46.73c-1.564,0-2.058-1.239-2.26-1.746-.296-.742-.361-3.518-.293-5.94.005-.176.149-.316.325-.316.003,0,.006,0,.009,0,.179.005.321.154.315.334-.075,2.697.031,5.139.248,5.68.335.84.84,1.577,2.283,1.265,1.387-.297,1.88-.797,2.111-2.138l.572-4.534c.023-.178.188-.303.363-.282.178.023.304.185.281.363l-.574,4.549c-.275,1.605-.985,2.327-2.617,2.678-.279.059-.532.086-.763.086ZM36.813,40.735c-.152,0-.291-.028-.411-.069-2.443-.822-3.953-9.116-4-10.152-.111-2.226.464-3.802,1.709-4.684,2.46-1.743,6.592-.086,6.766-.014.166.068.245.258.178.423-.067.166-.256.246-.423.178-.04-.016-3.978-1.593-6.146-.056-1.051.745-1.534,2.132-1.435,4.122.078,1.721,1.771,8.966,3.558,9.567.119.04.48.161,1-.465.999-1.195,1.916-2.16,1.925-2.169.123-.131.33-.136.459-.011.13.123.135.329.011.459-.009.01-.912.96-1.897,2.138-.471.567-.925.733-1.295.733ZM49.877,38.211c-.063,0-.126-.018-.182-.056-.149-.101-.188-.303-.087-.451,2.797-4.137,3.778-9.141,2.939-10.215-2.464-3.153-6.718-1.841-7.105-1.712-.017.009-.034.016-.053.022-.157.047-.338-.026-.405-.175-.067-.15-.01-.327.13-.411.429-.258,5.226-1.603,7.944,1.876,1.198,1.531-.272,7.072-2.912,10.979-.062.093-.165.143-.269.143Z"/>
      <path class="cls-3" d="M50.019,40.124c-.482,0-.915-.068-1.174-.223-.273-.163-.325-.386-.333-.505-.07-1.246.595-1.493.965-1.6-.047-.067-.109-.145-.172-.224-.208-.26-.493-.616-.714-1.15-.038-.093-.136-.266-.264-.495-.676-1.213-2.083-3.736-1.173-5.037.418-.597,1.244-.837,2.453-.714-.389-1.123-2.123-4.473-6.101-4.538-1.2-.032-2.211.352-2.959,1.107-1.677,1.692-1.62,4.771-1.619,4.802.005.179-.137.329-.316.333-.212-.005-.329-.137-.333-.316-.004-.137-.068-3.383,1.805-5.274.878-.887,2.016-1.328,3.433-1.302,4.987.082,6.764,4.82,6.824,5.456.034.356-.24.424-.272.43l-.117.003c-.818-.132-1.875-.17-2.265.386-.676.967.645,3.336,1.209,4.348.145.261.254.459.297.564.185.447.426.749.62.991.172.216.322.403.377.625.027.044.388.536,2.423.117.534-.113.855-.013.955.288.193.582-.87,1.256-1.458,1.531-.527.244-1.364.398-2.09.398ZM49.841,38.363c-.054.021-.102.034-.135.043-.303.085-.59.165-.545.952.188.201,1.797.184,2.674-.221.433-.202.74-.428.92-.595-.004,0-.007.001-.01.002-1.337.276-2.281.237-2.81-.112-.034-.022-.065-.045-.093-.068ZM53.053,38.516h0Z"/>
    </g>
    <g>
      <path class="cls-3" d="M40.557,41.046c-.33,0-.676-.044-1.035-.134-.103-.026-1.008-.269-.996-.847.011-.529.766-.685,1.05-.744.998-.205,1.063-.287,1.373-.681.095-.121.208-.264.363-.437,0,0,0,0,0,0,.521-.58,1.01-.378,1.22-.291.329.137.602.465.714.858.101.355.052.697-.138.963-.618.865-1.503,1.314-2.553,1.314ZM39.246,40.095c.094.064.255.142.434.187.867.217,2.075.232,2.902-.928.098-.137.068-.314.042-.407-.056-.197-.196-.377-.338-.436-.176-.073-.273-.112-.486.125l-.242-.217.241.217c-.144.161-.249.294-.337.406-.397.504-.578.675-1.753.916-.243.05-.383.1-.462.137Z"/>
      <path class="cls-3" d="M41.508,38.73c-.158,0-.296-.115-.321-.276-.007-.044-.011-.087-.014-.131-.764-.021-1.499-.351-2.058-.935-.714-.745-1.038-1.776-.89-2.83.158-1.137.099-2.139.067-2.678-.009-.149-.015-.261-.015-.33.003-.522,1.533-1.191,2.421-1.284,1.098-.113,1.83.376,2.048,1.383.586,2.681.049,3.87-.343,4.739-.073.16-.141.312-.197.463l-.052.14c-.202.545-.377,1.016-.324,1.364.027.177-.095.343-.272.37-.016.003-.033.004-.049.004ZM38.93,31.645c.002.053.006.12.011.198.033.561.095,1.605-.072,2.806-.12.856.141,1.691.715,2.291.452.472,1.048.733,1.66.735.07-.285.181-.586.301-.909l.051-.138c.062-.166.136-.331.215-.505.374-.829.84-1.862.3-4.334-.104-.479-.352-.757-.761-.851-.897-.207-2.15.467-2.421.707Z"/>
    </g>
  </g>
  <g>
    <g>
      <path class="cls-3" d="M40.716,31.507c-.015.107.195.39.467.428s.506-.184.521-.29-.195-.224-.468-.263-.506.017-.521.124h0Z"/>
      <path class="cls-3" d="M41.244,32.047c-.026,0-.051-.001-.076-.005-.171-.023-.344-.131-.462-.288-.032-.041-.077-.112-.093-.185l-.014-.009.009-.067c.005-.037.024-.091.085-.138.109-.082.322-.113.559-.079.289.041.588.18.56.385-.011.08-.078.174-.179.252-.116.088-.254.136-.388.136ZM40.825,31.526c.014.071.17.274.373.301.209.027.387-.147.399-.198-.012-.018-.138-.106-.376-.14-.221-.032-.361.009-.396.036Z"/>
    </g>
    <g>
      <path class="cls-3" d="M49.025,31.29c.015.107-.195.39-.467.428s-.506-.184-.521-.29.195-.224.468-.261.506.017.521.124h0Z"/>
      <path class="cls-3" d="M48.497,31.776c-.27,0-.497-.215-.514-.341-.004-.026-.001-.067.034-.114.073-.096.261-.178.481-.208.165-.023.339-.014.454.033v-.008s.012.014.012.014c.064.03.108.073.116.131l.023.161-.046-.046c-.067.153-.266.343-.492.374-.023.003-.045.005-.068.005ZM48.67,31.21c-.048,0-.102.003-.158.011-.218.03-.365.107-.409.166-.007.009-.015.022-.013.034.01.073.216.278.461.244.249-.035.431-.295.421-.367v-.004c-.015-.041-.13-.084-.302-.084Z"/>
    </g>
  </g>
  <path class="cls-3" d="M49.418,37.412c-.062,0-.125-.018-.181-.055-.149-.1-.189-.302-.089-.451.635-.947.518-1.917.405-2.855-.048-.402-.098-.818-.085-1.219.012-.412.065-.751.116-1.08.059-.386.116-.75.092-1.181-.01-.18.128-.332.307-.342.185.001.333.128.342.307.026.498-.037.913-.1,1.315-.048.309-.097.629-.108,1.001-.011.351.034.725.081,1.12.121,1.006.258,2.147-.511,3.294-.062.093-.166.144-.27.144Z"/>
</svg>