<?xml version="1.0" encoding="UTF-8"?>
<svg id="Layer_1" data-name="Layer 1" xmlns="http://www.w3.org/2000/svg" viewBox="0 0 88 88">
  <defs>
    <style>
      .cls-1 {
        fill: none;
        stroke: #656565;
        stroke-linecap: round;
        stroke-linejoin: round;
        stroke-width: 1.5px;
      }
    </style>
  </defs>
  <rect class="cls-1" x="26.589" y="14.33" width="34.822" height="19.18"/>
  <rect class="cls-1" x="61.411" y="19.14" width="3.352" height="9.56"/>
  <rect class="cls-1" x="23.237" y="19.14" width="3.352" height="9.56"/>
  <path class="cls-1" d="M25.041,60.447h-7.528c-3.412,0-6.178-2.766-6.178-6.178v-19.39c0-3.412,2.766-6.178,6.178-6.178h9.076"/>
  <path class="cls-1" d="M61.411,28.7h9.076c3.412,0,6.178,2.766,6.178,6.178v19.39c0,3.412-2.766,6.178-6.178,6.178h-5.725"/>
  <path class="cls-1" d="M25.808,57.064h-1.608c-2.534,0-4.608-2.074-4.608-4.608h0c0-2.534,2.074-4.608,4.608-4.608h39.6c2.534,0,4.608,2.074,4.608,4.608h0c0,2.534-2.074,4.608-4.608,4.608"/>
  <g>
    <polyline class="cls-1" points="44.65 53.621 26.589 53.621 22.493 71.684 44.65 71.684"/>
    <g>
      <polyline class="cls-1" points="44.65 71.684 66.808 71.684 62.711 53.621 44.65 53.621"/>
      <polyline class="cls-1" points="26.589 53.621 22.493 71.684 44.65 71.684"/>
    </g>
  </g>
  <line class="cls-1" x1="30.358" y1="58.835" x2="58.942" y2="58.835"/>
  <line class="cls-1" x1="29.31" y1="62.652" x2="59.991" y2="62.652"/>
  <line class="cls-1" x1="28.348" y1="66.47" x2="60.952" y2="66.47"/>
  <circle class="cls-1" cx="60.542" cy="39.996" r="2.017"/>
  <circle class="cls-1" cx="68.408" cy="39.996" r="2.017"/>
</svg>