<?xml version="1.0" encoding="UTF-8"?>
<svg id="Layer_1" data-name="Layer 1" xmlns="http://www.w3.org/2000/svg" viewBox="0 0 88 88">
  <defs>
    <style>
      .cls-1 {
        fill: none;
        stroke: #656565;
        stroke-linecap: round;
        stroke-linejoin: round;
        stroke-width: 1.5px;
      }
    </style>
  </defs>
  <g>
    <line class="cls-1" x1="26.856" y1="38.793" x2="26.856" y2="49.319"/>
    <path class="cls-1" d="M26.856,44.721h4.81c1.63,0,2.964-1.334,2.964-2.964h0c0-1.63-1.334-2.964-2.964-2.964h-4.81"/>
    <line class="cls-1" x1="34.631" y1="49.319" x2="31.666" y2="44.721"/>
    <polyline class="cls-1" points="38.611 49.207 40.874 43.944 43.137 38.681 45.399 43.944 47.662 49.207"/>
    <line class="cls-1" x1="40.54" y1="46.38" x2="45.734" y2="46.38"/>
    <polyline class="cls-1" points="61.144 49.319 61.144 38.793 56.433 46.38 51.723 38.793 51.723 49.319"/>
  </g>
  <g>
    <g>
      <line class="cls-1" x1="13.318" y1="28.801" x2="13.318" y2="20.683"/>
      <line class="cls-1" x1="23.545" y1="28.801" x2="23.545" y2="20.683"/>
      <line class="cls-1" x1="33.773" y1="28.801" x2="33.773" y2="20.683"/>
      <line class="cls-1" x1="44" y1="28.801" x2="44" y2="20.683"/>
      <line class="cls-1" x1="54.227" y1="28.801" x2="54.227" y2="20.683"/>
      <line class="cls-1" x1="64.455" y1="28.801" x2="64.455" y2="20.683"/>
      <line class="cls-1" x1="74.682" y1="28.801" x2="74.682" y2="20.683"/>
    </g>
    <g>
      <line class="cls-1" x1="13.318" y1="67.317" x2="13.318" y2="59.199"/>
      <line class="cls-1" x1="23.545" y1="67.317" x2="23.545" y2="59.199"/>
      <line class="cls-1" x1="33.773" y1="67.317" x2="33.773" y2="59.199"/>
      <line class="cls-1" x1="44" y1="67.317" x2="44" y2="59.199"/>
      <line class="cls-1" x1="54.227" y1="67.317" x2="54.227" y2="59.199"/>
      <line class="cls-1" x1="64.455" y1="67.317" x2="64.455" y2="59.199"/>
      <line class="cls-1" x1="74.682" y1="67.317" x2="74.682" y2="59.199"/>
    </g>
    <rect class="cls-1" x="5.694" y="29.609" width="76.613" height="28.781" rx="5.697" ry="5.697"/>
  </g>
</svg>