<?xml version="1.0" encoding="UTF-8"?>
<svg id="Layer_1" data-name="Layer 1" xmlns="http://www.w3.org/2000/svg" viewBox="0 0 88 88">
  <defs>
    <style>
      .cls-1 {
        fill: none;
        stroke: #656565;
        stroke-linecap: round;
        stroke-linejoin: round;
        stroke-width: 1.5px;
      }
    </style>
  </defs>
  <path class="cls-1" d="M39.15,18.503c-3.133,1.717-5.257,5.045-5.257,8.87s2.124,7.153,5.257,8.87"/>
  <path class="cls-1" d="M48.85,36.242c3.133-1.717,5.257-5.045,5.257-8.87s-2.124-7.153-5.257-8.87"/>
  <g>
    <rect class="cls-1" x="13.839" y="59.444" width="60.323" height="13.811" rx="4.061" ry="4.061"/>
    <line class="cls-1" x1="20.55" y1="66.35" x2="28.173" y2="66.35"/>
    <circle class="cls-1" cx="35.355" cy="66.35" r="2.299"/>
    <circle class="cls-1" cx="45.291" cy="66.35" r="2.299"/>
    <circle class="cls-1" cx="55.227" cy="66.35" r="2.299"/>
    <circle class="cls-1" cx="65.162" cy="66.35" r="2.299"/>
  </g>
  <path class="cls-1" d="M47.591,59.32v-3.591c0-1.983-1.608-3.591-3.591-3.591s-3.591,1.608-3.591,3.591v3.591"/>
  <line class="cls-1" x1="44" y1="52.138" x2="44" y2="27.372"/>
  <path class="cls-1" d="M36.896,14.267c-4.646,2.524-7.8,7.446-7.8,13.105s3.132,10.548,7.752,13.079"/>
  <path class="cls-1" d="M51.104,40.478c4.646-2.524,7.8-7.446,7.8-13.105s-3.132-10.547-7.752-13.079"/>
  <path class="cls-1" d="M53.191,44.327c6.01-3.265,10.091-9.633,10.091-16.954s-4.052-13.645-10.029-16.92"/>
  <path class="cls-1" d="M34.809,10.418c-6.01,3.265-10.091,9.633-10.091,16.954s4.052,13.645,10.029,16.92"/>
  <line class="cls-1" x1="20.55" y1="73.255" x2="20.55" y2="77.582"/>
  <line class="cls-1" x1="67.462" y1="73.255" x2="67.462" y2="77.582"/>
</svg>