<?xml version="1.0" encoding="UTF-8"?>
<svg id="Layer_1" data-name="Layer 1" xmlns="http://www.w3.org/2000/svg" viewBox="0 0 88 88">
  <defs>
    <style>
      .cls-1 {
        fill: none;
        stroke: #656565;
        stroke-linecap: round;
        stroke-linejoin: round;
        stroke-width: 1.5px;
      }
    </style>
  </defs>
  <path class="cls-1" d="M29.253,23.894h51.364v15.01H25.167v-10.924c0-2.255,1.831-4.086,4.086-4.086Z" transform="translate(23.556 -22.665) rotate(30.82)"/>
  <path class="cls-1" d="M19.179,34.369h44.986v7.63c0,1.998-1.622,3.619-3.619,3.619H22.874c-2.04,0-3.695-1.656-3.695-3.695v-7.554h0Z" transform="translate(26.375 -15.702) rotate(30.82)"/>
  <line class="cls-1" x1="26.025" y1="31.399" x2="34.537" y2="36.477"/>
  <path class="cls-1" d="M59.929,52.95c1.141.72,2.493,1.136,3.942,1.136,2.701,0,5.063-1.447,6.355-3.608"/>
  <circle class="cls-1" cx="70.707" cy="42.024" r="3.048"/>
  <path class="cls-1" d="M39.36,45.072l-3.144,5.234c-.89,1.482-2.492,2.388-4.221,2.388h-9.43"/>
  <path class="cls-1" d="M45.594,48.883l-3.803,6.309c-1.147,1.482-4.842,4.171-7.07,4.171h-12.155"/>
  <path class="cls-1" d="M16.116,45.412h3.204c1.762,0,3.204,1.442,3.204,3.204v14.614c0,1.762-1.442,3.204-3.204,3.204h-3.204"/>
  <path class="cls-1" d="M8.754,75.735h2.556c2.643,0,4.806-2.163,4.806-4.806v-27.666c0-2.643-2.163-4.806-4.806-4.806h-2.556s0,37.278,0,37.278Z"/>
</svg>