<?xml version="1.0" encoding="UTF-8"?>
<svg id="Layer_1" data-name="Layer 1" xmlns="http://www.w3.org/2000/svg" viewBox="0 0 88 88">
  <defs>
    <style>
      .cls-1 {
        fill: none;
        stroke: #656565;
        stroke-linecap: round;
        stroke-linejoin: round;
        stroke-width: 1.5px;
      }
    </style>
  </defs>
  <path class="cls-1" d="M43.972,9.272s-13.387,15.211-31.46,17.344c-1.236.149,1.578,11.411,1.824,12.495,3.786,16.643,13.739,32.302,29.636,39.617h.474"/>
  <path class="cls-1" d="M44.458,9.272s13.387,15.211,31.46,17.344c1.236.149-1.578,11.411-1.824,12.495-3.786,16.643-13.739,32.302-29.636,39.617h-.474"/>
  <g>
    <path class="cls-1" d="M46.778,45.145c.001-1.186-.837-2.207-2.001-2.436-1.163-.23-2.327.397-2.776,1.494-.449,1.097-.059,2.359.931,3.012v3.918c0,.749.607,1.355,1.356,1.355s1.356-.607,1.356-1.355v-3.908c.706-.456,1.133-1.239,1.134-2.079Z"/>
    <path class="cls-1" d="M44.297,38.235s-7.895.316-11.556,2.209v14.262c3.66,1.893,11.556,2.209,11.556,2.209"/>
    <path class="cls-1" d="M44.297,38.235s7.895.316,11.556,2.209v14.262c-3.66,1.893-11.556,2.209-11.556,2.209"/>
    <path class="cls-1" d="M36.413,39.118v-3.27c0-4.38,3.583-7.963,7.963-7.963h0c4.38,0,7.963,3.583,7.963,7.963v3.27"/>
  </g>
  <line class="cls-1" x1="44.297" y1="9.272" x2="44.297" y2="23.716"/>
  <line class="cls-1" x1="44.297" y1="63.3" x2="44.297" y2="77.745"/>
</svg>