<?xml version="1.0" encoding="UTF-8"?>
<svg id="Layer_1" data-name="Layer 1" xmlns="http://www.w3.org/2000/svg" viewBox="0 0 88 88">
  <defs>
    <style>
      .cls-1 {
        fill: none;
        stroke: #656565;
        stroke-linecap: round;
        stroke-linejoin: round;
        stroke-width: 1.5px;
      }
    </style>
  </defs>
  <polyline class="cls-1" points="38.948 25.425 38.948 22.625 38.948 18.335 26.368 18.335 6.388 18.335 6.388 50.895 26.368 50.895 38.948 50.895 38.948 41.705 38.948 38.905"/>
  <path class="cls-1" d="M75.31,63.985l.57,1.59,1.45.6,1.52-.72,1.4,1.4-.72,1.52c.24.58.36.87.6,1.45l1.59.57v1.99l-1.59.57c-.24.58-.36.87-.6,1.45l.72,1.52-1.4,1.4-1.52-.72-1.45.6-.57,1.59h-1.99l-.57-1.59-1.45-.6-1.52.72-1.4-1.4.72-1.52c-.24-.58-.36-.87-.6-1.45l-1.59-.57v-1.99l1.59-.57c.24-.58.36-.87.6-1.45l-.72-1.52c.467-.467.933-.933,1.4-1.4l1.52.72,1.45-.6.57-1.59h1.99Z"/>
  <circle id="circle30" class="cls-1" cx="74.301" cy="71.376" r="3.23"/>
  <rect class="cls-1" x="38.948" y="25.425" width="38.88" height="13.48"/>
  <polyline class="cls-1" points="38.948 41.705 77.828 41.705 77.828 55.185 26.368 55.185 26.368 50.895"/>
  <polyline class="cls-1" points="64.12 71.275 26.37 71.275 26.37 57.795 77.83 57.795 77.83 63.355"/>
  <line class="cls-1" x1="41.3" y1="30.325" x2="48.73" y2="30.325"/>
  <line class="cls-1" x1="41.3" y1="34.615" x2="48.73" y2="34.615"/>
  <line class="cls-1" x1="41.3" y1="46.605" x2="48.73" y2="46.605"/>
  <line class="cls-1" x1="31.51" y1="50.895" x2="38.95" y2="50.895"/>
  <line class="cls-1" x1="41.3" y1="50.895" x2="48.73" y2="50.895"/>
  <g>
    <line class="cls-1" x1="31.51" y1="62.695" x2="38.95" y2="62.695"/>
    <line class="cls-1" x1="41.3" y1="62.695" x2="48.73" y2="62.695"/>
    <line class="cls-1" x1="31.51" y1="66.985" x2="38.95" y2="66.985"/>
    <line class="cls-1" x1="41.3" y1="66.985" x2="48.73" y2="66.985"/>
  </g>
  <circle class="cls-1" cx="58.18" cy="32.575" r="2.24"/>
  <circle class="cls-1" cx="68.69" cy="32.575" r="2.24"/>
  <polyline class="cls-1" points="38.948 22.625 77.828 22.625 77.828 9.145 26.368 9.145 26.368 18.335"/>
  <line class="cls-1" x1="31.51" y1="14.045" x2="38.95" y2="14.045"/>
  <line class="cls-1" x1="41.3" y1="14.045" x2="48.73" y2="14.045"/>
  <line class="cls-1" x1="41.3" y1="18.335" x2="48.73" y2="18.335"/>
  <circle class="cls-1" cx="58.18" cy="16.295" r="2.24"/>
  <circle class="cls-1" cx="68.69" cy="16.295" r="2.24"/>
  <circle class="cls-1" cx="58.18" cy="48.445" r="2.24"/>
  <circle class="cls-1" cx="68.69" cy="48.445" r="2.24"/>
  <circle class="cls-1" cx="58.18" cy="64.805" r="2.24"/>
</svg>