<?xml version="1.0" encoding="UTF-8"?>
<svg id="Layer_1" data-name="Layer 1" xmlns="http://www.w3.org/2000/svg" viewBox="0 0 88 88">
  <defs>
    <style>
      .cls-1 {
        fill: #336339;
      }
    </style>
  </defs>
  <path class="cls-1" d="M25.316,34.781h2.399v10.474c0,1.822-.206,3.269-.618,4.34-.412,1.072-1.158,1.946-2.238,2.622-1.072.668-2.481,1.002-4.229,1.002-1.698,0-3.087-.293-4.167-.878-1.08-.585-1.851-1.43-2.312-2.535-.462-1.113-.692-2.63-.692-4.551v-10.474h2.399v10.461c0,1.575.144,2.737.433,3.487.297.742.8,1.315,1.509,1.719.717.404,1.591.606,2.622.606,1.764,0,3.021-.4,3.772-1.199.75-.8,1.125-2.337,1.125-4.612v-10.461Z"/>
  <polygon class="cls-1" points="31.684 52.909 31.684 34.781 34.145 34.781 43.666 49.014 43.666 34.781 45.966 34.781 45.966 52.909 43.506 52.909 33.984 38.664 33.984 52.909 31.684 52.909"/>
  <rect class="cls-1" x="50.406" y="34.781" width="2.399" height="18.128"/>
  <path class="cls-1" d="M55.191,52.909l7.011-9.447-6.183-8.681h2.856l3.289,4.649c.684.965,1.171,1.706,1.459,2.226.404-.66.882-1.348,1.434-2.065l3.648-4.81h2.609l-6.368,8.545,6.863,9.583h-2.968l-4.563-6.467c-.256-.371-.519-.775-.791-1.212-.404.659-.692,1.113-.866,1.36l-4.551,6.319h-2.881Z"/>
  <path class="cls-1" d="M72.25,38.232h.382c.183,0,.307-.027.373-.082.067-.055.101-.127.101-.216,0-.058-.016-.109-.048-.154-.032-.046-.077-.081-.135-.103-.056-.022-.161-.034-.315-.034h-.358v.589ZM71.935,39.331v-1.952h.671c.229,0,.395.018.498.055.103.035.184.098.245.187.061.09.091.185.091.286,0,.143-.051.267-.154.373-.101.106-.236.165-.404.178.069.029.124.063.166.103.079.077.175.206.288.387l.238.382h-.385l-.173-.308c-.136-.242-.246-.393-.329-.454-.058-.045-.142-.067-.252-.067h-.185v.829h-.315ZM72.73,36.814c-.255,0-.503.066-.745.197-.24.13-.429.317-.565.56-.136.242-.204.494-.204.757,0,.261.067.512.2.752.135.239.322.426.563.56.24.133.491.2.752.2s.512-.067.752-.2c.24-.135.427-.321.56-.56.133-.24.2-.491.2-.752,0-.263-.068-.515-.204-.757-.135-.244-.323-.43-.565-.56-.242-.131-.49-.197-.743-.197ZM72.73,36.513c.305,0,.602.078.892.236.29.155.516.379.678.671.162.29.243.593.243.909,0,.313-.08.613-.24.901-.159.288-.382.513-.671.673-.287.159-.587.238-.901.238s-.615-.079-.904-.238c-.287-.16-.51-.385-.671-.673-.16-.288-.24-.589-.24-.901,0-.316.081-.619.243-.909.163-.292.39-.515.68-.671.29-.157.587-.236.892-.236Z"/>
</svg>