<?xml version="1.0" encoding="UTF-8"?>
<svg id="Layer_1" data-name="Layer 1" xmlns="http://www.w3.org/2000/svg" viewBox="0 0 88 88">
  <defs>
    <style>
      .cls-1 {
        fill: #656565;
      }

      .cls-2 {
        fill: none;
        stroke: #656565;
        stroke-linecap: round;
        stroke-linejoin: round;
        stroke-width: 1.5px;
      }
    </style>
  </defs>
  <path class="cls-2" d="M72.62,9.94H15.38c-1.795,0-3.25,1.455-3.25,3.25v57.24c0,1.795,1.455,3.25,3.25,3.25h57.24c1.795,0,3.25-1.455,3.25-3.25V13.19c0-1.795-1.455-3.25-3.25-3.25Z"/>
  <path class="cls-2" d="M68.585,60.182v4.06c0,1.34-1.08,2.43-2.43,2.43H21.725c-1.34,0-2.43-1.09-2.43-2.43V19.812c0-1.34,1.09-2.43,2.43-2.43h44.43c1.35,0,2.43,1.09,2.43,2.43v6.33"/>
  <line class="cls-2" x1="68.585" y1="51.162" x2="68.585" y2="35.162"/>
  <path class="cls-2" d="M43.94,57.2c8.384,0,15.18-6.796,15.18-15.18s-6.796-15.18-15.18-15.18-15.18,6.796-15.18,15.18,6.796,15.18,15.18,15.18Z"/>
  <path class="cls-2" d="M43.94,46.99c2.618,0,4.74-2.122,4.74-4.74s-2.122-4.74-4.74-4.74-4.74,2.122-4.74,4.74,2.122,4.74,4.74,4.74Z"/>
  <path class="cls-1" d="M44.02,26.84h-.05c-.409,0-.74.331-.74.74v5.26c0,.409.331.74.74.74h.05c.409,0,.74-.331.74-.74v-5.26c0-.409-.331-.74-.74-.74Z"/>
  <path class="cls-1" d="M44.02,50.78h-.05c-.409,0-.74.331-.74.74v5.26c0,.409.331.74.74.74h.05c.409,0,.74-.331.74-.74v-5.26c0-.409-.331-.74-.74-.74Z"/>
  <path class="cls-1" d="M35.4,42.15v-.05c0-.409-.331-.74-.74-.74h-5.26c-.409,0-.74.331-.74.74v.05c0,.409.331.74.74.74h5.26c.409,0,.74-.331.74-.74Z"/>
  <path class="cls-1" d="M59.31,42.15v-.05c0-.409-.331-.74-.74-.74h-5.26c-.409,0-.74.331-.74.74v.05c0,.409.331.74.74.74h5.26c.409,0,.74-.331.74-.74Z"/>
  <path class="cls-1" d="M54.854,31.304l-.035-.035c-.289-.289-.757-.289-1.046,0l-3.719,3.719c-.289.289-.289.757,0,1.047l.035.035c.289.289.757.289,1.047,0l3.719-3.719c.289-.289.289-.757,0-1.046Z"/>
  <path class="cls-1" d="M37.931,48.234l-.035-.035c-.289-.289-.757-.289-1.047,0l-3.719,3.719c-.289.289-.289.757,0,1.047l.035.035c.289.289.757.289,1.047,0l3.719-3.719c.289-.289.289-.757,0-1.047Z"/>
  <path class="cls-1" d="M37.94,36.042l.035-.035c.289-.289.289-.758,0-1.047l-3.719-3.719c-.289-.289-.757-.289-1.047,0l-.035.035c-.289.289-.289.758,0,1.046l3.719,3.719c.289.289.758.289,1.047,0Z"/>
  <path class="cls-1" d="M54.84,52.942l.035-.035c.289-.289.289-.757,0-1.046l-3.719-3.719c-.289-.289-.757-.289-1.047,0l-.035.035c-.289.289-.289.757,0,1.047l3.719,3.719c.289.289.758.289,1.047,0Z"/>
  <path class="cls-2" d="M27.31,73.68h-6.56c-.679,0-1.23.551-1.23,1.23v1.92c0,.679.551,1.23,1.23,1.23h6.56c.679,0,1.23-.551,1.23-1.23v-1.92c0-.679-.551-1.23-1.23-1.23Z"/>
  <path class="cls-2" d="M67.22,73.68h-6.56c-.679,0-1.23.551-1.23,1.23v1.92c0,.679.551,1.23,1.23,1.23h6.56c.679,0,1.23-.551,1.23-1.23v-1.92c0-.679-.551-1.23-1.23-1.23Z"/>
  <path class="cls-2" d="M70.9,33.93v-6.56c0-.679-.551-1.23-1.23-1.23h-1.92c-.679,0-1.23.551-1.23,1.23v6.56c0,.679.551,1.23,1.23,1.23h1.92c.679,0,1.23-.551,1.23-1.23Z"/>
  <path class="cls-2" d="M70.9,58.95v-6.56c0-.679-.551-1.23-1.23-1.23h-1.92c-.679,0-1.23.551-1.23,1.23v6.56c0,.679.551,1.23,1.23,1.23h1.92c.679,0,1.23-.551,1.23-1.23Z"/>
</svg>