<?xml version="1.0" encoding="UTF-8"?>
<svg id="Layer_1" data-name="Layer 1" xmlns="http://www.w3.org/2000/svg" viewBox="0 0 88 88">
  <defs>
    <style>
      .cls-1 {
        fill: #656565;
      }

      .cls-2 {
        fill: none;
        stroke: #656565;
        stroke-linecap: round;
        stroke-linejoin: round;
        stroke-width: 1.5px;
      }
    </style>
  </defs>
  <g>
    <ellipse class="cls-1" cx="16.575" cy="13.335" rx="1.04" ry="1.1"/>
    <ellipse class="cls-1" cx="20.275" cy="13.335" rx="1.04" ry="1.1"/>
    <ellipse class="cls-1" cx="23.975" cy="13.335" rx="1.04" ry="1.1"/>
  </g>
  <g>
    <g>
      <path class="cls-2" d="M72.495,19.345h1.43c2.21,0,4.01,1.8,4.01,4.01v38.6"/>
      <path class="cls-2" d="M12.855,19.345h-1.43c-2.21,0-4.01,1.8-4.01,4.01v38.6"/>
      <path class="cls-2" d="M50.645,69.895H11.425c-2.21,0-4.01-1.8-4.01-4.01V27.275"/>
      <path class="cls-2" d="M34.705,69.895h39.23c2.21,0,4.01-1.8,4.01-4.01V27.275"/>
      <line class="cls-2" x1="77.945" y1="63.705" x2="7.405" y2="63.705"/>
      <rect class="cls-2" x="37.185" y="69.895" width="12.13" height="8.28"/>
      <line class="cls-2" x1="25.095" y1="78.165" x2="62.045" y2="78.165"/>
    </g>
    <line class="cls-2" x1="12.855" y1="16.805" x2="72.495" y2="16.805"/>
    <path class="cls-2" d="M59.795,58.225h10.58c1.17,0,2.12-.87,2.12-1.93V11.755c0-1.06-.96-1.93-2.12-1.93H14.975c-1.17,0-2.12.87-2.12,1.93v44.54c0,1.06.96,1.93,2.12,1.93h44.82"/>
    <path class="cls-2" d="M55.855,39.095c.69-.29,1.03-.43,1.72-.72l.67-1.9h2.36l.68,1.89c.69.28,1.04.42,1.72.71l1.81-.87,1.68,1.66-.86,1.82c.29.69.43,1.03.72,1.72l1.9.67v2.36l-1.88.68c-.28.69-.42,1.04-.71,1.72l.87,1.81-1.66,1.68-1.82-.86c-.69.29-1.03.43-1.72.72l-.67,1.9h-2.36l-.68-1.88-1.72-.71-1.81.87-1.68-1.66.86-1.82-.72-1.72-1.9-.67c0-1.18,0,.25,0-.93"/>
    <circle id="circle30" class="cls-2" cx="59.441" cy="45.266" r="3.64"/>
    <path class="cls-2" d="M31.595,37.125l-1.82-.86c-.69.29-1.03.43-1.72.72l-.67,1.9h-2.36l-.68-1.88-1.72-.71-1.81.87-1.68-1.66.86-1.82-.72-1.72-1.9-.67v-2.36l1.88-.68c.28-.69.42-1.04.71-1.72l-.87-1.81,1.66-1.68,1.82.86c.69-.29,1.03-.43,1.72-.72l.67-1.9h2.36l.68,1.89c.69.28,1.04.42,1.72.71l1.81-.87,1.68,1.66-.86,1.82c.29.69.43,1.03.72,1.72"/>
    <circle id="circle30-2" class="cls-2" cx="26.166" cy="30.063" r="3.64"/>
    <circle class="cls-2" cx="44.115" cy="35.095" r="12.35"/>
    <line class="cls-2" x1="34.945" y1="43.365" x2="31.115" y2="47.195"/>
    <rect class="cls-2" x="21.814" y="48.756" width="10.63" height="4.78" rx="1.89" ry="1.89" transform="translate(-28.22 34.164) rotate(-45)"/>
    <g>
      <circle class="cls-2" cx="44.115" cy="35.095" r="7.42"/>
      <ellipse class="cls-2" cx="44.115" cy="35.095" rx="3.49" ry="7.42"/>
      <line class="cls-2" x1="44.115" y1="27.675" x2="44.115" y2="42.215"/>
      <line class="cls-2" x1="51.535" y1="35.095" x2="36.705" y2="35.095"/>
    </g>
  </g>
</svg>