<?xml version="1.0" encoding="UTF-8"?>
<svg id="Layer_1" data-name="Layer 1" xmlns="http://www.w3.org/2000/svg" viewBox="0 0 88 88">
  <defs>
    <style>
      .cls-1 {
        fill: none;
        stroke: #656565;
        stroke-linecap: round;
        stroke-linejoin: round;
        stroke-width: 1.5px;
      }
    </style>
  </defs>
  <path class="cls-1" d="M36.026,14.586h39.229c2.209,0,4.013,1.804,4.013,4.013v38.602"/>
  <path class="cls-1" d="M51.974,14.586H12.745c-2.209,0-4.013,1.804-4.013,4.013v38.602"/>
  <path class="cls-1" d="M51.974,65.136H12.745c-2.209,0-4.013-1.804-4.013-4.013V22.522"/>
  <path class="cls-1" d="M36.026,65.136h39.229c2.209,0,4.013-1.804,4.013-4.013V22.522"/>
  <line class="cls-1" x1="79.268" y1="58.945" x2="8.732" y2="58.945"/>
  <line class="cls-1" x1="26.416" y1="14.586" x2="26.416" y2="58.945"/>
  <path class="cls-1" d="M37.777,41.175v5.834h-5.834c0,3.222,2.612,5.834,5.834,5.834s5.834-2.612,5.834-5.834-2.612-5.834-5.834-5.834Z"/>
  <path class="cls-1" d="M37.777,40.247c-3.735,0-6.763,3.028-6.763,6.763h6.763v-6.763Z"/>
  <rect class="cls-1" x="47.463" y="49.83" width="6.739" height="3.014"/>
  <rect class="cls-1" x="57.437" y="39.332" width="6.739" height="3.014"/>
  <rect class="cls-1" x="67.411" y="49.83" width="6.739" height="3.014"/>
  <line class="cls-1" x1="60.806" y1="43.304" x2="60.806" y2="49.227"/>
  <polyline class="cls-1" points="50.832 49.83 50.832 46.265 70.78 46.265 70.78 49.83"/>
  <rect class="cls-1" x="57.437" y="49.83" width="6.739" height="3.014"/>
  <polyline class="cls-1" points="52.472 23.255 54.551 25.334 57.857 22.027"/>
  <line class="cls-1" x1="44.572" y1="28.3" x2="49.566" y2="23.306"/>
  <polyline class="cls-1" points="31.932 30.001 37.708 24.225 41.727 28.245"/>
  <circle class="cls-1" cx="43.132" cy="29.214" r="1.707"/>
  <circle class="cls-1" cx="51.003" cy="22.391" r="1.707"/>
  <line class="cls-1" x1="13.086" y1="25.081" x2="14.321" y2="25.081"/>
  <line class="cls-1" x1="13.086" y1="20.431" x2="22.246" y2="20.431"/>
  <line class="cls-1" x1="13.086" y1="29.505" x2="14.321" y2="29.505"/>
  <line class="cls-1" x1="13.086" y1="33.928" x2="14.321" y2="33.928"/>
  <line class="cls-1" x1="61.62" y1="20.658" x2="74.149" y2="20.658"/>
  <line class="cls-1" x1="61.62" y1="25.081" x2="74.149" y2="25.081"/>
  <line class="cls-1" x1="61.62" y1="29.505" x2="74.149" y2="29.505"/>
  <line class="cls-1" x1="13.086" y1="38.352" x2="14.321" y2="38.352"/>
  <line class="cls-1" x1="13.086" y1="42.775" x2="14.321" y2="42.775"/>
  <line class="cls-1" x1="13.086" y1="54.997" x2="14.321" y2="54.997"/>
  <line class="cls-1" x1="17.049" y1="54.997" x2="18.283" y2="54.997"/>
  <line class="cls-1" x1="21.011" y1="54.997" x2="22.246" y2="54.997"/>
  <line class="cls-1" x1="16.628" y1="25.081" x2="21.93" y2="25.081"/>
  <line class="cls-1" x1="16.628" y1="29.505" x2="21.93" y2="29.505"/>
  <line class="cls-1" x1="16.628" y1="33.928" x2="21.93" y2="33.928"/>
  <line class="cls-1" x1="16.628" y1="38.352" x2="21.93" y2="38.352"/>
  <line class="cls-1" x1="16.628" y1="42.775" x2="21.93" y2="42.775"/>
  <line class="cls-1" x1="26.416" y1="35.893" x2="79.268" y2="35.893"/>
</svg>