<?xml version="1.0" encoding="UTF-8"?>
<svg id="Layer_1" data-name="Layer 1" xmlns="http://www.w3.org/2000/svg" viewBox="0 0 88 88">
  <defs>
    <style>
      .cls-1 {
        fill: #656565;
      }

      .cls-2 {
        fill: none;
        stroke: #656565;
        stroke-linecap: round;
        stroke-linejoin: round;
        stroke-width: 1.5px;
      }
    </style>
  </defs>
  <path class="cls-2" d="M67.265,63.985l.57,1.59,1.45.6,1.52-.72,1.4,1.4-.72,1.52c.24.58.36.87.6,1.45l1.59.57v1.99l-1.59.57c-.24.58-.36.87-.6,1.45l.72,1.52-1.4,1.4-1.52-.72-1.45.6-.57,1.59h-1.99l-.57-1.59-1.45-.6-1.52.72-1.4-1.4.72-1.52c-.24-.58-.36-.87-.6-1.45l-1.59-.57v-1.99l1.59-.57c.24-.58.36-.87.6-1.45l-.72-1.52c.467-.467.933-.933,1.4-1.4l1.52.72,1.45-.6.57-1.59h1.99Z"/>
  <circle id="circle30" class="cls-2" cx="66.256" cy="71.376" r="3.23"/>
  <rect class="cls-2" x="18.325" y="25.425" width="51.46" height="13.48"/>
  <rect class="cls-2" x="18.325" y="41.705" width="51.46" height="13.48"/>
  <polyline class="cls-2" points="56.075 71.275 18.325 71.275 18.325 57.795 69.785 57.795 69.785 63.355"/>
  <g>
    <line class="cls-2" x1="23.465" y1="30.325" x2="30.905" y2="30.325"/>
    <line class="cls-2" x1="33.255" y1="30.325" x2="40.685" y2="30.325"/>
    <line class="cls-2" x1="23.465" y1="34.615" x2="30.905" y2="34.615"/>
    <line class="cls-2" x1="33.255" y1="34.615" x2="40.685" y2="34.615"/>
  </g>
  <g>
    <line class="cls-2" x1="23.465" y1="46.605" x2="30.905" y2="46.605"/>
    <line class="cls-2" x1="33.255" y1="46.605" x2="40.685" y2="46.605"/>
    <line class="cls-2" x1="23.465" y1="50.895" x2="30.905" y2="50.895"/>
    <line class="cls-2" x1="33.255" y1="50.895" x2="40.685" y2="50.895"/>
  </g>
  <g>
    <line class="cls-2" x1="23.465" y1="62.695" x2="30.905" y2="62.695"/>
    <line class="cls-2" x1="33.255" y1="62.695" x2="40.685" y2="62.695"/>
    <line class="cls-2" x1="23.465" y1="66.985" x2="30.905" y2="66.985"/>
    <line class="cls-2" x1="33.255" y1="66.985" x2="40.685" y2="66.985"/>
  </g>
  <g>
    <circle class="cls-2" cx="50.135" cy="32.575" r="2.24"/>
    <circle class="cls-2" cx="60.645" cy="32.575" r="2.24"/>
    <circle class="cls-2" cx="50.135" cy="48.445" r="2.24"/>
    <circle class="cls-2" cx="60.645" cy="48.445" r="2.24"/>
    <circle class="cls-2" cx="50.135" cy="64.805" r="2.24"/>
  </g>
  <g>
    <path class="cls-2" d="M69.785,9.134H18.325v13.491h51.46v-13.491Z"/>
    <path class="cls-1" d="M20.375,20.567v-1.166l5.12-6.947h-5.12v-1.278h6.87v1.166l-5.12,6.947h5.12v1.278h-6.87Z"/>
    <path class="cls-1" d="M28.145,20.567l3.568-9.391h1.475l3.568,9.391h-1.587l-.832-2.196h-3.877l-.832,2.196h-1.492.009ZM30.941,17.084h2.907l-1.449-4.048-1.458,4.048Z"/>
    <path class="cls-1" d="M38.026,20.567v-9.383h3.594c1.081,0,1.87.232,2.376.695.506.455.763,1.064.763,1.81s-.129.901-.386,1.244-.6.583-1.021.738c.557.129.995.377,1.312.763.334.377.497.866.497,1.475s-.111.978-.334,1.381c-.223.395-.583.703-1.072.935-.48.223-1.115.334-1.887.334h-3.842v.009ZM39.501,19.297h2.256c.746,0,1.244-.129,1.518-.377s.412-.609.412-1.089-.137-.841-.412-1.098c-.274-.266-.789-.403-1.527-.403h-2.239v2.968h-.009ZM39.501,15.155h1.998c.678,0,1.141-.129,1.398-.377s.386-.583.386-.995-.129-.746-.386-.978c-.249-.232-.712-.352-1.398-.352h-1.998v2.693h0v.009Z"/>
    <path class="cls-1" d="M46.962,20.567v-9.383h3.594c1.081,0,1.87.232,2.376.695.506.455.763,1.064.763,1.81s-.129.901-.386,1.244-.6.583-1.021.738c.557.129.995.377,1.312.763.334.377.497.866.497,1.475s-.111.978-.334,1.381c-.223.395-.583.703-1.072.935-.48.223-1.115.334-1.887.334h-3.842v.009ZM48.438,19.297h2.256c.746,0,1.244-.129,1.518-.377s.412-.609.412-1.089-.137-.841-.412-1.098c-.274-.266-.789-.403-1.527-.403h-2.239v2.968h-.009ZM48.438,15.155h1.998c.678,0,1.141-.129,1.398-.377s.386-.583.386-.995-.129-.746-.386-.978c-.249-.232-.712-.352-1.398-.352h-1.998v2.693h0v.009Z"/>
    <path class="cls-1" d="M56.208,20.567v-9.383h1.475v9.391h-1.475v-.009Z"/>
    <path class="cls-1" d="M59.442,20.567l3.259-4.854-3.122-4.537h1.647l2.376,3.422,2.401-3.422h1.595l-3.113,4.503,3.242,4.88h-1.672l-2.479-3.799-2.504,3.799h-1.63v.009Z"/>
  </g>
</svg>